<svg width="140" height="140" viewBox="0 0 140 140" fill="none" xmlns="http://www.w3.org/2000/svg">
<rect width="140" height="140" fill="white"/>
<path d="M28 70C28 67.8783 28.8429 65.8434 30.3431 64.3431C31.8434 62.8429 33.8783 62 36 62H50V112H28V70Z" fill="#78E6DD"/>
<path d="M72 36C72 31.58 75.752 28 80.38 28H112V112H72V36Z" fill="#3259B4"/>
<path d="M50 54.134C50 49.642 53.752 46 58.38 46H90V103.866C90 108.358 86.248 112 81.62 112H50V54.134Z" fill="#3C8CFF"/>
<path d="M72 112H90V46H72V112Z" fill="#3370FF"/>
<path d="M50 112L59.99 111.996C68 111.996 68 111.996 68 111.996V62H50V112Z" fill="#00C8D2"/>
</svg>
