<svg width="140" height="140" viewBox="0 0 140 140" fill="none" xmlns="http://www.w3.org/2000/svg">
<rect width="140" height="140" fill="white"/>
<path d="M101.404 29.2201C102.065 37.0727 98.4948 40.7989 90.6911 40.3987C90.5313 40.39 90.3714 40.4222 90.2264 40.4922C90.0814 40.5622 89.9559 40.6677 89.8618 40.7989L82.2347 51.3009C82.1596 51.4042 82.0646 51.4919 81.9554 51.5589C81.8462 51.6259 81.7248 51.6708 81.5984 51.6912C81.472 51.7116 81.343 51.707 81.2188 51.6776C81.0947 51.6483 80.978 51.5947 80.8753 51.5201L77.7994 49.271C77.5953 49.1199 77.4587 48.8965 77.4191 48.6488C77.3795 48.4011 77.4398 48.149 77.5872 47.9464L85.2721 37.4063C85.3742 37.2645 85.4362 37.0986 85.4515 36.9259C85.4668 36.7532 85.4348 36.5801 85.3589 36.4247C83.694 33.0638 83.829 29.8014 85.7639 26.6375C90.5368 20.7099 98.7037 22.349 101.404 29.2201Z" fill="#00C8D2"/>
<path d="M93.1479 41.5185C98.2617 41.5185 102.407 37.373 102.407 32.2593C102.407 27.1455 98.2617 23 93.1479 23C88.0342 23 83.8887 27.1455 83.8887 32.2593C83.8887 37.373 88.0342 41.5185 93.1479 41.5185Z" fill="#00C8D2"/>
<path d="M57.9629 51.2073L54.4163 54.2431C54.2282 54.408 53.9826 54.493 53.731 54.4802C53.4795 54.4676 53.2418 54.3581 53.068 54.175L46.3265 46.9844C46.2157 46.8654 46.0761 46.7762 45.9206 46.7252C45.7653 46.6742 45.599 46.6629 45.4374 46.6925C41.7702 47.3412 38.862 46.1702 36.7125 43.1798C30.6744 28.5845 54.9341 29.0807 50.303 41.9149C50.2396 42.0943 50.2299 42.2882 50.275 42.4729C50.3201 42.6578 50.4181 42.8256 50.557 42.956C53.2862 45.5119 55.7549 48.2622 57.9629 51.2073Z" fill="#00C8D2"/>
<path d="M118.128 72.7763C116.319 82.123 105.122 83.0916 100.9 74.5294C100.826 74.3795 100.715 74.2514 100.576 74.1579C100.438 74.0645 100.278 74.0089 100.112 73.9967L88.6626 73.0475C88.4545 73.0311 88.257 72.9479 88.0993 72.8102C87.9417 72.6723 87.8322 72.4872 87.7871 72.2823C87.4239 70.5841 87.5698 68.9148 88.2249 67.2748L100.277 68.224C100.448 68.2362 100.617 68.2052 100.77 68.1339C100.923 68.0627 101.056 67.9536 101.153 67.8172C107.32 59.2162 118.692 62.2478 118.128 72.7763Z" fill="#00C8D2"/>
<path d="M110.278 81.3334C115.647 81.3334 120 76.9806 120 71.6111C120 66.2417 115.647 61.8889 110.278 61.8889C104.908 61.8889 100.556 66.2417 100.556 71.6111C100.556 76.9806 104.908 81.3334 110.278 81.3334Z" fill="#00C8D2"/>
<path d="M42.2892 78.9889L39.0707 80.1954C38.9148 80.2546 38.7769 80.3533 38.6705 80.4818C38.5641 80.6104 38.4928 80.7645 38.4636 80.9289C36.4593 92.1249 21.263 91.1887 20.9258 78.7476C22.535 71.2193 31.1787 68.5554 36.4689 74.3078C36.5946 74.4456 36.7585 74.5429 36.9402 74.5876C37.122 74.6321 37.3133 74.6222 37.4904 74.5588L49.8536 70.2734C50.0955 70.192 50.3594 70.2081 50.5882 70.3182C50.8172 70.4283 50.9929 70.6237 51.0774 70.8622L52.3493 74.3947C52.3926 74.5146 52.412 74.6418 52.4063 74.769C52.4005 74.8962 52.37 75.0208 52.3162 75.1357C52.2624 75.2505 52.1866 75.3534 52.093 75.4383C51.9995 75.5231 51.8901 75.5883 51.7712 75.6301L42.2892 78.9889Z" fill="#00C8D2"/>
<path d="M88.3333 108.503C87.0135 113.008 84.4121 115.617 80.5293 116.328C69.5632 118.343 63.2392 103.85 72.9174 97.1219C73.0701 97.0152 73.1901 96.8665 73.2632 96.6933C73.3364 96.5201 73.3599 96.3295 73.3307 96.1438L72.3984 90.3544L71.6103 86.0469C71.5652 85.789 71.6206 85.5232 71.7644 85.307C71.9082 85.0907 72.1291 84.9412 72.3792 84.8909L76.2332 84.1302C76.3576 84.1045 76.4858 84.1047 76.6102 84.1307C76.7347 84.1568 76.8527 84.2082 76.9575 84.2818C77.0623 84.3555 77.1517 84.4499 77.2204 84.5596C77.2891 84.6693 77.3358 84.792 77.3577 84.9206L79.0588 94.5532C79.0827 94.6952 79.1374 94.8301 79.2189 94.9479C79.3004 95.0659 79.4066 95.1639 79.5297 95.2349C79.959 95.4852 80.4204 95.6762 80.9137 95.8079C86.7187 97.3393 89.256 102.516 88.3333 108.503Z" fill="#00C8D2"/>
<path d="M78.3333 117.444C84.4698 117.444 89.4444 112.47 89.4444 106.333C89.4444 100.197 84.4698 95.2222 78.3333 95.2222C72.1968 95.2222 67.2222 100.197 67.2222 106.333C67.2222 112.47 72.1968 117.444 78.3333 117.444Z" fill="#00C8D2"/>
<path d="M70.463 83.1851C79.412 83.1851 86.6667 75.7232 86.6667 66.5185C86.6667 57.3137 79.412 49.8518 70.463 49.8518C61.5139 49.8518 54.2593 57.3137 54.2593 66.5185C54.2593 75.7232 61.5139 83.1851 70.463 83.1851Z" fill="#3259B4"/>
<path d="M43.1483 48C47.7506 48 51.4816 44.2691 51.4816 39.6667C51.4816 35.0643 47.7506 31.3334 43.1483 31.3334C38.5459 31.3334 34.8149 35.0643 34.8149 39.6667C34.8149 44.2691 38.5459 48 43.1483 48Z" fill="#00C8D2"/>
<path d="M29.7222 89.6666C35.0917 89.6666 39.4444 85.3138 39.4444 79.9444C39.4444 74.575 35.0917 70.2222 29.7222 70.2222C24.3528 70.2222 20 74.575 20 79.9444C20 85.3138 24.3528 89.6666 29.7222 89.6666Z" fill="#00C8D2"/>
</svg>
