<svg width="140" height="140" viewBox="0 0 140 140" fill="none" xmlns="http://www.w3.org/2000/svg">
<rect width="140" height="140" fill="white"/>
<rect x="20" y="23" width="100" height="70" rx="3" fill="#D9D9D9"/>
<path d="M20 26C20 24.3431 21.3431 23 23 23H70V58H20V26Z" fill="#78E6DD"/>
<path d="M70 23H117C118.657 23 120 24.3431 120 26V58H70V23Z" fill="#3C8CFF"/>
<path d="M20 58H70V93H23C21.3431 93 20 91.6569 20 90V58Z" fill="#00C8D2"/>
<path d="M70 58H120V90C120 91.6569 118.657 93 117 93H70V58Z" fill="#3259B4"/>
<circle cx="53.5" cy="58.5" r="16.5" fill="#133C9A"/>
<path d="M23 108C23 91.4315 36.4315 78 53 78V78C69.5685 78 83 91.4315 83 108V115C83 116.657 81.6569 118 80 118H26C24.3431 118 23 116.657 23 115V108Z" fill="#133C9A"/>
</svg>
