<svg width="140" height="140" viewBox="0 0 140 140" fill="none" xmlns="http://www.w3.org/2000/svg">
<rect width="140" height="140" fill="white"/>
<path d="M81.5476 23.4357C88.2169 28.3735 91.8623 35.0797 92.4838 43.5545C92.5094 43.9254 92.708 44.1109 93.0796 44.1109L115 44.1013L114.116 67.1943C113.501 80.8818 112.819 94.5437 112.069 108.18C111.675 115.299 109.743 119.885 102.017 119.904C86.1668 119.962 70.3039 119.994 54.4282 120L34.8623 119.597C31.1912 117.998 29.234 115.251 28.9906 111.356C28.4332 102.446 28.0007 93.6003 27.6932 84.8186L26.0018 45.8762C25.9914 45.6595 26.0252 45.4428 26.1012 45.2395C26.1772 45.0362 26.2938 44.8504 26.4438 44.6933C26.5939 44.5363 26.7744 44.4114 26.9743 44.3261C27.1742 44.2409 27.3893 44.197 27.6067 44.1973H48.1913C48.3114 44.1975 48.427 44.1519 48.5145 44.0699C48.602 43.9879 48.6549 43.8756 48.6622 43.7559C49.7289 27.1966 65.422 13.314 81.5476 23.4357ZM55.0817 44.1685L86.0066 44.2261C86.0704 44.2261 86.1315 44.2008 86.1765 44.1558C86.2216 44.1108 86.2469 44.0498 86.2469 43.9862V43.8423C86.2555 39.1362 84.6111 34.6196 81.6755 31.2858C78.7399 27.9521 74.7532 26.0739 70.5922 26.0645H70.573C68.5116 26.0598 66.4695 26.5145 64.5631 27.4025C62.6568 28.2906 60.9237 29.5947 59.4628 31.2402C58.002 32.8858 56.8419 34.8406 56.0489 36.993C55.256 39.1455 54.8457 41.4533 54.8414 43.7847V43.9286C54.8414 43.9922 54.8667 44.0533 54.9118 44.0982C54.9569 44.1432 55.018 44.1685 55.0817 44.1685Z" fill="#00C8D2"/>
<circle cx="70" cy="80" r="13" fill="#3259B4"/>
</svg>
