<svg width="3522" height="2000" viewBox="0 0 3522 2000" fill="none" xmlns="http://www.w3.org/2000/svg">
<g clip-path="url(#clip0_498_2427)">
<rect width="3521.11" height="2000" fill="url(#paint0_linear_498_2427)"/>
<g clip-path="url(#clip1_498_2427)">
<path d="M1230.72 0.483398H1055V1559.26H1230.72V0.483398Z" fill="#C3DAFC"/>
<path d="M2475.54 0.483398H2299.83V1559.26H2475.54V0.483398Z" fill="#C3DAFC"/>
<path d="M515.24 595.904H719.464V421.931H515.24V595.904Z" fill="#C3DAFC"/>
<path d="M617.35 595.904H821.573V421.931H617.35V595.904Z" fill="#D4E4F8"/>
<path d="M515.361 551.78H547.722L544.871 542.372L547.722 535.653H515.361V551.78Z" fill="#9DC3F3"/>
<path d="M617.35 475.77H649.71L646.865 466.362L649.71 459.641H617.35V475.77Z" fill="#E3F0FF"/>
<path d="M617.355 459.641H584.995L587.845 469.048L584.995 475.77H617.355V459.641Z" fill="#9DC3F3"/>
<path d="M821.579 553.65H789.219L792.069 563.058L789.219 569.777H821.579V553.65Z" fill="#E3F0FF"/>
<path d="M808.205 433.727H749.437V457.346H808.205V433.727Z" fill="white"/>
<path d="M1817.91 595.904H1954.06V479.921H1817.91V595.904Z" fill="#C3DAFC"/>
<path d="M1885.99 595.904H2022.13V479.921H1885.99V595.904Z" fill="#D4E4F8"/>
<path d="M1817.99 566.488H1839.56L1837.67 560.218L1839.56 555.736H1817.99V566.488Z" fill="#9DC3F3"/>
<path d="M1885.99 515.813H1907.55L1905.66 509.542L1907.55 505.061H1885.99V515.813Z" fill="#E3F0FF"/>
<path d="M1885.99 505.061H1864.42L1866.31 511.332L1864.42 515.813H1885.99V505.061Z" fill="#9DC3F3"/>
<path d="M2022.14 567.734H2000.56L2002.47 574.004L2000.56 578.486H2022.14V567.734Z" fill="#E3F0FF"/>
<path d="M2013.21 487.785H1974.04V503.532H2013.21V487.785Z" fill="white"/>
<path d="M1519 595.904H1695.52V445.538H1519V595.904Z" fill="#C3DAFC"/>
<path d="M1607.26 595.904H1783.77V445.538H1607.26V595.904Z" fill="#D4E4F8"/>
<path d="M1519.1 557.768H1547.08L1544.61 549.64L1547.08 543.83H1519.1V557.768Z" fill="#9DC3F3"/>
<path d="M1607.26 492.07H1635.23L1632.76 483.939L1635.23 478.129H1607.26V492.07Z" fill="#E3F0FF"/>
<path d="M1607.26 478.129H1579.29L1581.75 486.26L1579.29 492.07H1607.26V478.129Z" fill="#9DC3F3"/>
<path d="M1783.77 559.383H1755.81L1758.26 567.512L1755.81 573.322H1783.77V559.383Z" fill="#E3F0FF"/>
<path d="M1772.21 455.732H1721.42V476.149H1772.21V455.732Z" fill="white"/>
<path d="M154.58 595.904H358.804V421.931H154.58V595.904Z" fill="#C3DAFC"/>
<path d="M256.688 595.904H460.918V421.931H256.688V595.904Z" fill="#D4E4F8"/>
<path d="M154.701 551.78H187.056L184.211 542.372L187.056 535.653H154.701V551.78Z" fill="#9DC3F3"/>
<path d="M256.688 475.77H289.054L286.198 466.362L289.054 459.641H256.688V475.77Z" fill="#E3F0FF"/>
<path d="M256.689 459.641H224.329L227.179 469.048L224.329 475.77H256.689V459.641Z" fill="#9DC3F3"/>
<path d="M460.923 553.65H428.558L431.413 563.058L428.558 569.777H460.923V553.65Z" fill="#E3F0FF"/>
<path d="M447.543 433.727H388.775V457.346H447.543V433.727Z" fill="white"/>
<path d="M3520.75 716.315H2651.36V1554.23H3520.75V716.315Z" fill="#C1D8F4"/>
<path d="M3493.53 742.187H2678.58V824.261H3493.53V742.187Z" fill="#E3F0FF"/>
<path d="M3493.53 904.971H2678.58V987.046H3493.53V904.971Z" fill="#E3F0FF"/>
<path d="M3493.53 823.579H2678.58V905.654H3493.53V823.579Z" fill="#D4E4F8"/>
<path d="M3493.53 1067.75H2678.58V1149.82H3493.53V1067.75Z" fill="#E3F0FF"/>
<path d="M3493.53 986.363H2678.58V1068.44H3493.53V986.363Z" fill="#D4E4F8"/>
<path d="M3493.53 1228.78H2678.58V1310.85H3493.53V1228.78Z" fill="#E3F0FF"/>
<path d="M3493.53 1147.38H2678.58V1229.46H3493.53V1147.38Z" fill="#D4E4F8"/>
<path d="M3493.53 1309.43H2678.58V1391.51H3493.53V1309.43Z" fill="#D4E4F8"/>
<path d="M3493.53 1391.51H2678.58V1473.58H3493.53V1391.51Z" fill="#E3F0FF"/>
<path d="M3493.53 1472.15H2678.58V1554.23H3493.53V1472.15Z" fill="#D4E4F8"/>
<path d="M3520.75 501.147H2651.36V656.665H3520.75V501.147Z" fill="#D5E5FB"/>
<path d="M101.029 595.904H22.4785V1563.82H101.029V595.904Z" fill="#9DC3F3"/>
<path d="M948.962 595.904H883.669V1563.82H948.962V595.904Z" fill="#9DC3F3"/>
<path d="M948.963 595.904H101.03V621.093H948.963V595.904Z" fill="#699DEE"/>
<path d="M948.963 1054.67H101.03V1079.87H948.963V1054.67Z" fill="#699DEE"/>
<path d="M948.963 1439.46H101.03V1464.64H948.963V1439.46Z" fill="#699DEE"/>
<path d="M529.381 1054.68H740.523V874.812H529.381V1054.68Z" fill="#A9C8ED"/>
<path d="M634.955 1054.68H846.092V874.812H634.955V1054.68Z" fill="#D4E4F8"/>
<path d="M529.502 1009.06H562.964L560.015 999.337L562.964 992.384H529.502V1009.06Z" fill="#9DC3F3"/>
<path d="M634.955 930.474H668.412L665.468 920.746L668.412 913.799H634.955V930.474Z" fill="#E3F0FF"/>
<path d="M634.955 913.799H601.498L604.443 923.521L601.498 930.474H634.955V913.799Z" fill="#9DC3F3"/>
<path d="M846.097 1010.99H812.64L815.584 1020.72L812.64 1027.67H846.097V1010.99Z" fill="#E3F0FF"/>
<path d="M832.271 887.006H771.514V911.425H832.271V887.006Z" fill="white"/>
<path d="M258.416 1054.68H469.558V874.812H258.416V1054.68Z" fill="#C3DAFC"/>
<path d="M363.994 1054.68H575.131V874.812H363.994V1054.68Z" fill="#D4E4F8"/>
<path d="M258.543 1009.06H292L289.056 999.337L292 992.384H258.543V1009.06Z" fill="#9DC3F3"/>
<path d="M363.989 930.474H397.447L394.502 920.746L397.447 913.799H363.989V930.474Z" fill="#E3F0FF"/>
<path d="M363.99 913.799H330.532L333.482 923.521L330.532 930.474H363.99V913.799Z" fill="#9DC3F3"/>
<path d="M575.132 1010.99H541.674L544.629 1020.72L541.674 1027.67H575.132V1010.99Z" fill="#E3F0FF"/>
<path d="M575.132 911.425H541.674L544.629 921.153L541.674 928.1H575.132V911.425Z" fill="#E3F0FF"/>
<path d="M484.345 995.613H385.316V1035.41H484.345V995.613Z" fill="white"/>
<path d="M529.381 1438.87H711.874V1283.42H529.381V1438.87Z" fill="#C3DAFC"/>
<path d="M620.625 1438.87H803.118V1283.42H620.625V1438.87Z" fill="#D4E4F8"/>
<path d="M529.491 1399.45H558.403L555.857 1391.04L558.403 1385.03H529.491V1399.45Z" fill="#9DC3F3"/>
<path d="M620.63 1331.53H649.547L646.996 1323.12L649.547 1317.11H620.63V1331.53Z" fill="#E3F0FF"/>
<path d="M620.63 1317.11H591.708L594.259 1325.52L591.708 1331.53H620.63V1317.11Z" fill="#9DC3F3"/>
<path d="M803.123 1401.12H774.206L776.757 1409.53L774.206 1415.53H803.123V1401.12Z" fill="#E3F0FF"/>
<path d="M791.171 1293.96H738.654V1315.06H791.171V1293.96Z" fill="white"/>
<path d="M182.788 1438.87H393.93V1259.01H182.788V1438.87Z" fill="#C3DAFC"/>
<path d="M288.356 1438.87H499.498V1259.01H288.356V1438.87Z" fill="#D4E4F8"/>
<path d="M182.909 1393.26H216.366L213.417 1383.53L216.366 1376.58H182.909V1393.26Z" fill="#2A4E96"/>
<path d="M288.356 1314.67H321.814L318.869 1304.94L321.814 1297.99H288.356V1314.67Z" fill="#618DC1"/>
<path d="M288.356 1297.99H254.898L257.848 1307.73L254.898 1314.67H288.356V1297.99Z" fill="#2A4E96"/>
<path d="M499.504 1395.19H466.047L468.997 1404.92L466.047 1411.86H499.504V1395.19Z" fill="#618DC1"/>
<path d="M485.673 1271.21H424.915V1295.62H485.673V1271.21Z" fill="white"/>
<path d="M242.217 873.983H403.635V736.48H242.217V873.983Z" fill="#C3DAFC"/>
<path d="M322.927 873.983H484.345V736.48H322.927V873.983Z" fill="#D4E4F8"/>
<path d="M242.312 839.116H267.891L265.639 831.68L267.891 826.364H242.312V839.116Z" fill="#9DC3F3"/>
<path d="M322.927 779.037H348.505L346.253 771.597L348.505 766.286H322.927V779.037Z" fill="#E3F0FF"/>
<path d="M322.926 766.286H297.348L299.599 773.721L297.348 779.037H322.926V766.286Z" fill="#9DC3F3"/>
<path d="M484.345 840.59H458.771L461.023 848.025L458.771 853.341H484.345V840.59Z" fill="#E3F0FF"/>
<path d="M473.778 745.801H427.324V764.476H473.778V745.801Z" fill="white"/>
<path d="M530.615 873.983H692.033V736.48H530.615V873.983Z" fill="#C3DAFC"/>
<path d="M611.324 873.983H772.742V736.48H611.324V873.983Z" fill="#D4E4F8"/>
<path d="M530.715 839.116H556.288L554.036 831.68L556.288 826.364H530.715V839.116Z" fill="#9DC3F3"/>
<path d="M611.324 779.037H636.903L634.651 771.597L636.903 766.286H611.324V779.037Z" fill="#E3F0FF"/>
<path d="M611.324 766.286H585.745L588.002 773.721L585.745 779.037H611.324V766.286Z" fill="#9DC3F3"/>
<path d="M772.747 840.59H747.169L749.421 848.025L747.169 853.341H772.747V840.59Z" fill="#E3F0FF"/>
<path d="M762.17 745.801H715.722V764.476H762.17V745.801Z" fill="white"/>
<path d="M419.76 1154.69H297.416V1258.91H419.76V1154.69Z" fill="#ED823A"/>
<path d="M358.588 1154.69H236.244V1258.91H358.588V1154.69Z" fill="#FF9E55"/>
<path d="M419.687 1232.48H400.303L402.014 1226.84L400.303 1222.82H419.687V1232.48Z" fill="#DD732C"/>
<path d="M358.588 1186.95H339.204L340.91 1181.31L339.204 1177.28H358.588V1186.95Z" fill="#FFB27D"/>
<path d="M358.589 1177.28H377.974L376.273 1182.91L377.974 1186.95H358.589V1177.28Z" fill="#DD732C"/>
<path d="M236.244 1233.6H255.629L253.923 1239.24L255.629 1243.26H236.244V1233.6Z" fill="#FFB27D"/>
<path d="M244.254 1175.91H279.459V1161.76H244.254V1175.91Z" fill="white"/>
<path d="M293.506 595.904H101.03V794.759H293.506V595.904Z" fill="white"/>
<path d="M283.229 606.526H111.312V784.132H283.229V606.526Z" fill="#FF9E55"/>
<path d="M1280.92 595.904H1209.07V1563.82H1280.92V595.904Z" fill="#9DC3F3"/>
<path d="M2128.85 595.904H2059.13V1563.82H2128.85V595.904Z" fill="#9DC3F3"/>
<path d="M2128.85 595.904H1280.92V618.605H2128.85V595.904Z" fill="#699DEE"/>
<path d="M2128.85 1054.67H1280.92V1079.87H2128.85V1054.67Z" fill="#699DEE"/>
<path d="M2128.85 1439.46H1280.92V1469.46H2128.85V1439.46Z" fill="#699DEE"/>
<path d="M1709.27 1054.68H1920.4V874.812H1709.27V1054.68Z" fill="#C3DAFC"/>
<path d="M1814.83 1054.68H2025.98V874.812H1814.83V1054.68Z" fill="#D4E4F8"/>
<path d="M1709.38 1009.06H1742.84L1739.89 999.337L1742.84 992.384H1709.38V1009.06Z" fill="#9DC3F3"/>
<path d="M1814.83 930.474H1848.29L1845.34 920.746L1848.29 913.799H1814.83V930.474Z" fill="#E3F0FF"/>
<path d="M1814.83 913.799H1781.38L1784.32 923.521L1781.38 930.474H1814.83V913.799Z" fill="#9DC3F3"/>
<path d="M2025.98 1010.99H1992.53L1995.47 1020.72L1992.53 1027.67H2025.98V1010.99Z" fill="#E3F0FF"/>
<path d="M2012.15 887.006H1951.39V911.425H2012.15V887.006Z" fill="white"/>
<path d="M1438.31 1054.68H1649.44V874.812H1438.31V1054.68Z" fill="#C3DAFC"/>
<path d="M1543.87 1054.68H1755.02V874.812H1543.87V1054.68Z" fill="#D4E4F8"/>
<path d="M1438.42 1009.06H1471.88L1468.94 999.337L1471.88 992.384H1438.42V1009.06Z" fill="#233862"/>
<path d="M1543.87 930.474H1577.32L1574.38 920.746L1577.32 913.799H1543.87V930.474Z" fill="#2A4E96"/>
<path d="M1543.87 913.799H1510.41L1513.36 923.521L1510.41 930.474H1543.87V913.799Z" fill="#233862"/>
<path d="M1755.02 1010.99H1721.56L1724.51 1020.72L1721.56 1027.67H1755.02V1010.99Z" fill="#2A4E96"/>
<path d="M1642.13 1002.64H1560.59V1035.41H1642.13V1002.64Z" fill="white"/>
<path d="M1398.9 1438.87H1578.4V1285.96H1398.9V1438.87Z" fill="#C3DAFC"/>
<path d="M1488.66 1438.87H1668.15V1285.96H1488.66V1438.87Z" fill="#D4E4F8"/>
<path d="M1399 1400.1H1427.46L1424.95 1391.82L1427.46 1385.93H1399V1400.1Z" fill="#9DC3F3"/>
<path d="M1488.66 1333.28H1517.1L1514.6 1325.02L1517.1 1319.1H1488.66V1333.28Z" fill="#E3F0FF"/>
<path d="M1488.66 1319.1H1460.22L1462.72 1327.38L1460.22 1333.28H1488.66V1319.1Z" fill="#9DC3F3"/>
<path d="M1668.16 1401.73H1639.71L1642.22 1410.01L1639.71 1415.92H1668.16V1401.73Z" fill="#E3F0FF"/>
<path d="M1656.4 1296.33H1604.75V1317.1H1656.4V1296.33Z" fill="white"/>
<path d="M1689.93 1438.87H1869.87V1285.59H1689.93V1438.87Z" fill="#C3DAFC"/>
<path d="M1779.91 1438.87H1959.85V1285.59H1779.91V1438.87Z" fill="#D4E4F8"/>
<path d="M1690.04 1399.99H1718.55L1716.04 1391.7L1718.55 1385.78H1690.04V1399.99Z" fill="#9DC3F3"/>
<path d="M1779.91 1333.03H1808.42L1805.91 1324.74L1808.42 1318.81H1779.91V1333.03Z" fill="#E3F0FF"/>
<path d="M1779.9 1318.81H1751.39L1753.9 1327.11L1751.39 1333.03H1779.9V1318.81Z" fill="#9DC3F3"/>
<path d="M1959.85 1401.64H1931.34L1933.85 1409.93L1931.34 1415.85H1959.85V1401.64Z" fill="#E3F0FF"/>
<path d="M1948.07 1295.98H1896.28V1316.8H1948.07V1295.98Z" fill="white"/>
<path d="M1421.98 875.051H1583.41V737.542H1421.98V875.051Z" fill="#C3DAFC"/>
<path d="M1502.7 875.051H1664.12V737.542H1502.7V875.051Z" fill="#D4E4F8"/>
<path d="M1422.08 840.178H1447.66L1445.4 832.743L1447.66 827.426H1422.08V840.178Z" fill="#9DC3F3"/>
<path d="M1502.69 780.094H1528.27L1526.03 772.659L1528.27 767.348H1502.69V780.094Z" fill="#E3F0FF"/>
<path d="M1502.7 767.348H1477.11L1479.37 774.783L1477.11 780.094H1502.7V767.348Z" fill="#9DC3F3"/>
<path d="M1664.12 841.652H1638.54L1640.79 849.087L1638.54 854.403H1664.12V841.652Z" fill="#E3F0FF"/>
<path d="M1653.54 746.869H1607.1V765.538H1653.54V746.869Z" fill="white"/>
<path d="M1877.82 770.713H1755.48V874.931H1877.82V770.713Z" fill="#ED823A"/>
<path d="M1816.65 770.713H1694.31V874.931H1816.65V770.713Z" fill="#FF9E55"/>
<path d="M1877.76 848.502H1858.37L1860.08 842.866L1858.37 838.839H1877.76V848.502Z" fill="#DD732C"/>
<path d="M1816.65 802.964H1797.26L1798.97 797.328L1797.26 793.301H1816.65V802.964Z" fill="#FFB27D"/>
<path d="M1816.65 793.301H1836.04L1834.34 798.937L1836.04 802.964H1816.65V793.301Z" fill="#DD732C"/>
<path d="M1694.31 849.624H1713.7L1711.98 855.254L1713.7 859.281H1694.31V849.624Z" fill="#FFB27D"/>
<path d="M1702.32 791.93H1737.52V777.78H1702.32V791.93Z" fill="white"/>
<path d="M1473.39 595.904H1280.92V794.759H1473.39V595.904Z" fill="white"/>
<path d="M1463.11 606.526H1291.2V784.132H1463.11V606.526Z" fill="#FF9E55"/>
<path d="M1426.5 1106.36C1426.5 1106.36 1418.29 1088.46 1424.73 1077.44C1431.17 1066.42 1456.73 1065.73 1456.73 1065.73C1456.73 1065.73 1454.51 1067 1454.4 1068.15C1454.28 1069.29 1461.73 1065.15 1466.84 1074.45C1471.95 1083.75 1471.7 1092.45 1466.27 1105.32C1460.84 1118.18 1426.5 1106.36 1426.5 1106.36Z" fill="#233862"/>
<path d="M1554.95 1285.17C1550.02 1286.35 1527.7 1286.63 1512.04 1282.99C1508.77 1282.24 1505.79 1281.31 1503.33 1280.19C1500.37 1278.84 1498.15 1277.22 1497 1275.26C1495.24 1272.21 1492 1261.78 1488.19 1248.1C1477.71 1210.42 1462.94 1148.15 1462.94 1148.15C1462.94 1148.15 1492.58 1154.4 1498.85 1159.74C1505.13 1165.07 1510.67 1249.71 1516.57 1252C1517.44 1252.34 1518.94 1253.05 1520.86 1254.03C1520.95 1254.07 1521.04 1254.12 1521.13 1254.17C1522.29 1254.75 1523.58 1255.42 1524.97 1256.17C1537.21 1262.67 1554.99 1274.81 1559.57 1276.98C1563.49 1278.84 1562.15 1283.46 1554.95 1285.17Z" fill="#FF9E55"/>
<path d="M1498.07 1196.34C1498.07 1194.9 1497.93 1193.46 1497.68 1192.01C1493.87 1170.34 1463.53 1148.59 1462.94 1148.59V1148.61C1462.94 1151.91 1457.88 1158.02 1450.1 1158.55C1440.86 1159.17 1429.53 1154.43 1429.53 1148.93C1429.48 1148.93 1424.27 1148.95 1422.54 1149.15C1415.13 1150.02 1400.37 1154.15 1394.04 1159.1C1388.02 1163.8 1396.52 1193.4 1401.79 1214.37C1404.02 1223.23 1405.66 1230.56 1405.39 1233.8C1405.26 1235.38 1403.88 1256.9 1402.66 1276.37C1401.64 1292.43 1400.71 1307.09 1400.69 1308.01C1400.62 1309.84 1409.4 1316.22 1424.15 1321.04C1427.71 1322.21 1431.63 1323.28 1435.83 1324.18C1443.41 1325.78 1451.97 1326.82 1461.28 1326.8C1464.32 1326.79 1467.2 1326.61 1469.93 1326.35C1490.99 1324.21 1498.2 1299.41 1498.07 1196.34Z" fill="#FF9E55"/>
<path d="M1554.99 1285.13C1554.27 1285.31 1553.31 1285.4 1552.07 1285.59C1548.06 1285.95 1541.6 1286.04 1534.42 1285.77C1523.51 1285.22 1511.01 1283.66 1503.3 1280.18C1507.03 1265.52 1514.82 1258.01 1521.12 1254.16C1526.52 1256.91 1535.13 1261.58 1542.84 1266.17H1542.93C1551.18 1270.93 1557.15 1276.14 1559.6 1276.98C1563.67 1278.36 1562.17 1283.48 1554.99 1285.13Z" fill="#FFB27D"/>
<path d="M1429.47 1147.98C1429.29 1139.57 1429.43 1129.51 1430.53 1121.03L1463.05 1126.52C1463.05 1126.52 1463.05 1136.76 1462.89 1148.14C1462.92 1148.14 1462.94 1148.15 1462.94 1148.15C1462.94 1148.15 1463.82 1158.7 1451.25 1160.25C1438.66 1161.79 1429.13 1156.13 1429.47 1147.98Z" fill="#FFB27D"/>
<path d="M1456.68 1594.17C1452.59 1591.56 1454.98 1572.3 1454.98 1572.3C1454.98 1572.3 1474.13 1556.6 1476.72 1568.69C1479.3 1580.77 1494.8 1586.27 1503.61 1587.78C1509.71 1588.81 1511.59 1592.32 1512.17 1594.39L1456.68 1594.17Z" fill="#233862"/>
<path d="M1397.99 1594.17C1393.9 1591.56 1396.31 1572.3 1396.31 1572.3C1396.31 1572.3 1415.46 1556.6 1418.04 1568.69C1420.62 1580.77 1436.11 1586.27 1444.94 1587.78C1451.04 1588.81 1452.91 1592.32 1453.48 1594.39L1397.99 1594.17Z" fill="#233862"/>
<path d="M1400.69 1308.01C1400.63 1309.84 1409.4 1316.22 1424.15 1321.04C1425.33 1321.44 1426.56 1321.81 1427.83 1322.17C1427.85 1322.18 1427.86 1322.2 1427.86 1322.21C1429.23 1338.89 1432.95 1362.43 1436.31 1385.16C1437.18 1391.05 1438.02 1396.88 1438.8 1402.53C1440.84 1417.47 1442.39 1431.08 1442.55 1440.88V1440.99C1442.62 1445.48 1438.95 1456.7 1438.67 1459.28C1438.49 1460.87 1438.36 1462.54 1438.26 1464.3C1437.85 1471.31 1438.02 1479.6 1438.57 1488.46C1440.98 1527.1 1450.86 1576.54 1454.39 1578.65C1461.39 1582.84 1474.15 1578.64 1480.63 1577.66C1483.31 1577.25 1485.45 1574.87 1485.32 1572.09C1482.16 1507.96 1491.25 1418.66 1498.05 1363.76C1498.22 1362.33 1498.4 1360.93 1498.57 1359.54C1499.39 1353.08 1499.93 1347.03 1500.27 1341.58C1500.57 1336.8 1500.72 1332.46 1500.79 1328.7C1500.8 1327.52 1500.82 1326.41 1500.82 1325.34C1500.84 1321.91 1498.2 1299.41 1498.07 1196.33C1498.07 1193.95 1496.18 1192 1493.87 1192H1432.86C1426.97 1192 1422.22 1196.99 1422.29 1203.08C1422.39 1210.94 1422.11 1221.93 1420.46 1232.4C1418.22 1246.72 1413.39 1260.08 1403.43 1263.3C1403.42 1263.3 1403.42 1263.31 1403.41 1263.33C1403.37 1263.42 1403.09 1264.05 1402.66 1265.1V1265.11C1402.56 1267.7 1402.45 1270.33 1402.34 1273.02C1402.32 1273.56 1402.29 1274.1 1402.27 1274.65C1402.26 1274.97 1402.25 1275.28 1402.23 1275.59C1402.21 1276.14 1402.18 1276.69 1402.14 1277.24C1402.11 1278.15 1402.07 1279.05 1402.02 1279.97C1401.98 1280.69 1401.94 1281.42 1401.91 1282.14C1401.83 1283.53 1401.74 1284.95 1401.65 1286.37C1401.63 1286.83 1401.61 1287.28 1401.58 1287.74C1401.45 1289.59 1401.34 1291.46 1401.2 1293.34C1401.15 1293.91 1401.11 1294.49 1401.06 1295.08C1401.05 1295.36 1401.03 1295.64 1401 1295.92C1400.96 1296.65 1400.9 1297.39 1400.84 1298.14C1400.78 1298.92 1400.71 1299.71 1400.64 1300.51C1400.4 1303.4 1400.76 1305.98 1400.69 1308.01Z" fill="#2A4E96"/>
<path d="M1438.57 1488.46C1440.98 1527.1 1450.86 1576.54 1454.39 1578.65C1461.39 1582.84 1474.15 1578.64 1480.63 1577.66C1483.31 1577.25 1485.47 1574.89 1485.33 1572.09C1482.16 1507.96 1491.25 1418.66 1498.05 1363.76C1498.23 1362.33 1498.41 1360.93 1498.57 1359.55C1499.39 1353.08 1499.93 1347.03 1500.27 1341.58C1497.03 1319.82 1478.79 1318.65 1462.24 1363.68C1464.29 1378.62 1442.54 1430.8 1442.54 1440.88V1440.99C1442.62 1445.48 1438.95 1456.7 1438.67 1459.28C1438.49 1460.87 1438.35 1462.54 1438.26 1464.31C1437.87 1471.31 1438.02 1479.61 1438.57 1488.46Z" fill="#233862"/>
<path d="M1400 1439.07C1399.51 1443.52 1394.44 1454.14 1393.84 1456.69C1385.48 1491.43 1390.09 1573.84 1394.24 1577.13C1400.66 1582.24 1413.83 1579.81 1420.39 1579.73C1423.1 1579.68 1425.53 1577.62 1425.74 1574.84C1430.88 1509.18 1452.2 1419 1465.91 1365.95C1472.8 1339.22 1473.78 1319.58 1473.78 1319.58C1473.78 1319.58 1409.73 1279.03 1402.79 1301.18C1396.67 1320.79 1403.87 1404.76 1400 1439.07Z" fill="#2A4E96"/>
<path d="M1420.35 1149.46C1420.35 1149.46 1439.22 1172.18 1440.33 1192.01H1430.73C1430.73 1192.01 1428.29 1170.46 1414.08 1150.82L1420.35 1149.46Z" fill="#2A4E96"/>
<path d="M1467.27 1149.41C1480.8 1170.56 1482.41 1192.01 1482.41 1192.01H1492C1491.2 1176.42 1481.82 1159.83 1476.59 1151.71H1476.58C1473.01 1150.68 1469.73 1149.93 1467.27 1149.41Z" fill="#2A4E96"/>
<path d="M1405.24 1271.43C1405.72 1294.7 1402.91 1341.04 1402.91 1341.04H1389.62C1383.34 1308.44 1381.13 1287.46 1381.13 1276.02C1381.13 1273.77 1381.15 1271.67 1381.16 1269.73C1381.23 1259.97 1381.5 1254.29 1381.5 1254.29C1379 1195.1 1390.45 1163.45 1394.04 1159.1C1397.64 1154.73 1414.08 1150.82 1414.08 1150.82C1414.08 1150.82 1419.51 1167.17 1421.73 1180.33C1423.94 1193.48 1404.31 1248.75 1405.11 1267.64C1405.16 1268.82 1405.2 1270.08 1405.24 1271.43Z" fill="#FF9E55"/>
<path d="M1404.43 1309.96C1403.81 1326.72 1402.92 1341.01 1402.92 1341.01H1389.63C1387.32 1329.38 1385.63 1319.2 1384.3 1310.5C1381.99 1294.65 1381.11 1283.39 1381.11 1276.06C1381.11 1273.77 1381.11 1271.66 1381.2 1269.74C1386.07 1268.64 1394.59 1267.91 1405.23 1271.48C1405.41 1281.83 1404.96 1296.68 1404.43 1309.96Z" fill="#FFB27D"/>
<path d="M1412.33 1358.23C1412.5 1361.98 1396.63 1370.6 1391.84 1368.31C1387.05 1366.02 1386.87 1353 1389.62 1341.01C1392.37 1329.01 1402.92 1341.01 1402.92 1341.01C1402.92 1341.01 1412.14 1354.38 1412.33 1358.23Z" fill="#FFB27D"/>
<path d="M1585.85 1285.59H1552.07L1559.61 1276.98C1559.61 1276.98 1568.3 1278.81 1573.96 1276.98C1579.64 1275.14 1585.85 1285.59 1585.85 1285.59Z" fill="#FFB27D"/>
<path d="M1429.74 1129.71C1429.74 1129.71 1437.79 1139.55 1446.39 1139.57C1457.1 1139.6 1462.94 1128.94 1462.94 1128.94L1429.74 1129.71Z" fill="#ED975D"/>
<path d="M1462.08 1129.79C1458.92 1132.36 1449.66 1134.91 1446.98 1135.21C1446.98 1135.21 1433.24 1132.04 1430.74 1130.48C1426.89 1128.07 1427.12 1123.16 1426.93 1116.35C1426.7 1108.28 1425.9 1101.94 1426.77 1097.3C1427.81 1091.73 1431.22 1088.56 1440.79 1087.7C1458.33 1086.13 1465.64 1090.67 1465.94 1096.75C1466.03 1098.38 1466.11 1099.93 1466.16 1101.41C1466.86 1120.37 1465.4 1127.09 1462.08 1129.79Z" fill="#FFB27D"/>
<path d="M1426.52 1106.36C1426.52 1106.36 1425.06 1090.18 1434.28 1090.18C1443.51 1090.18 1455.95 1102.35 1461.51 1094.54C1467.06 1086.73 1466.27 1105.32 1466.27 1105.32L1466.84 1080.42L1431.28 1079.05L1423.85 1084.78L1426.52 1106.36Z" fill="#233862"/>
<path d="M1957.79 1219.42H1846.93V1313.84H1957.79V1219.42Z" fill="#D8702A"/>
<path d="M1902.36 1219.42H1791.52V1313.84H1902.36V1219.42Z" fill="#FF9E55"/>
<path d="M1957.73 1289.9H1940.16L1941.71 1284.79L1940.16 1281.14H1957.73V1289.9Z" fill="#C15E1B"/>
<path d="M1902.36 1248.64H1884.81L1886.35 1243.53L1884.81 1239.89H1902.36V1248.64Z" fill="#FFB27D"/>
<path d="M1902.36 1239.89H1919.93L1918.38 1244.99L1919.93 1248.64H1902.36V1239.89Z" fill="#C15E1B"/>
<path d="M1791.51 1290.91H1809.08L1807.53 1296.01L1809.08 1299.67H1791.51V1290.91Z" fill="#FFB27D"/>
<path d="M1798.77 1238.64H1830.67V1225.82H1798.77V1238.64Z" fill="white"/>
<path d="M1843.82 1309.82C1841.12 1308.01 1835.02 1304.05 1834.75 1305.01C1834.55 1305.68 1834.91 1306.82 1835.66 1307.98C1832.02 1306.73 1828.34 1305.96 1819.78 1308.02C1818.06 1308.44 1816.53 1309.51 1815.63 1311.08C1814.81 1312.54 1814.55 1314.32 1816.8 1315.64C1821.31 1318.3 1819.97 1316.65 1826.25 1320.53C1832.51 1324.4 1840.05 1325.15 1844.41 1322.08L1850.38 1320.81L1850.74 1310.58C1850.74 1310.58 1847.31 1310.29 1843.82 1309.82Z" fill="#FFB27D"/>
<path d="M1999.18 1204.43C1999.18 1204.43 1982.17 1218.8 1965.73 1208.23C1965.73 1208.23 1963.64 1197.95 1964.86 1190.91C1965.01 1190.05 1965.15 1189.21 1965.29 1188.41C1966.62 1180.48 1967.17 1175.98 1967.17 1175.98C1967.17 1175.98 1967.18 1175.98 1967.19 1175.98C1968.06 1175.79 1996.39 1169.73 1996.2 1170.65C1991.86 1191.97 1999.18 1204.43 1999.18 1204.43Z" fill="#FFB27D"/>
<path d="M1992.64 1175.25C1989.21 1179.61 1978.78 1187.43 1965.29 1188.41C1966.62 1180.48 1967.17 1175.98 1967.17 1175.98C1967.17 1175.98 1967.18 1175.98 1967.19 1175.98C1967.96 1175.92 1993.65 1173.96 1992.64 1175.25Z" fill="#ED975D"/>
<path d="M1961.81 1174.09C1961.81 1174.09 1990.09 1187.01 1997.6 1168.69C2005.12 1150.38 2013.83 1139.71 1996.1 1130.68C1978.35 1121.66 1971.95 1127.11 1968.01 1132.59C1964.06 1138.08 1954.64 1170.27 1961.81 1174.09Z" fill="#FFB27D"/>
<path d="M1995.64 1173.7C1996.01 1174.05 2002.01 1177.3 2018.56 1154.83C2021.15 1151.29 2023.97 1143.12 2020.91 1134.82C2017.86 1126.52 2003.29 1117.64 1990.74 1112.57C1978.22 1107.51 1973.71 1114.46 1969.29 1121.46C1964.62 1128.81 1954.15 1133.57 1954.15 1133.57C1964.18 1142.2 1979.37 1135.58 1983.76 1138C1988.16 1140.43 1988.44 1148.37 1988.34 1150.87C1988.25 1153.38 1988.43 1155.51 1994.69 1154.47C2000.98 1153.43 1995.8 1163.59 1994.48 1165.48C1994.48 1165.48 1992.69 1170.81 1995.64 1173.7Z" fill="#A9453D"/>
<path d="M2038.92 1661.64H2057.16C2060.98 1661.64 2065.22 1657.69 2066.29 1650.45C2067.35 1643.21 2075.2 1639.27 2076.89 1633.34C2078.6 1627.41 2069.89 1619.09 2069.89 1619.09L2068.43 1617.13L2066.93 1615.13L2052.48 1618.64C2052.48 1618.64 2052.13 1622.19 2051.9 1626.71C2051.75 1629.97 2051.67 1633.76 2051.84 1637.06C2052.27 1644.97 2049.7 1653.47 2042.91 1655C2036.11 1656.55 2038.92 1661.64 2038.92 1661.64Z" fill="#2C3A64"/>
<path d="M1912.04 1661.64H1960.36C1960.82 1661.54 1961.17 1661.44 1961.38 1661.33C1964.61 1659.66 1963.59 1646.91 1963.21 1642.97C1963.13 1642.23 1963.08 1641.8 1963.08 1641.8C1963.08 1641.8 1946.09 1627.76 1943.76 1638.51C1943.68 1638.85 1943.59 1639.17 1943.51 1639.5V1639.51C1940.56 1649.57 1927.38 1654.14 1919.75 1655.4C1913.95 1656.38 1912.43 1659.89 1912.04 1661.64Z" fill="#2C3A64"/>
<path d="M1921.79 1373.81C1921.79 1373.81 1924.37 1407.07 1927.4 1447.03C1931.52 1501.35 1936.47 1568.05 1936.96 1580.68C1937.82 1602.63 1941.21 1637.72 1941.21 1637.72C1941.21 1637.72 1949.27 1646.06 1965.43 1642.55C1965.43 1642.55 1979.81 1592.44 1983.92 1539.43C1983.99 1538.57 1984.05 1537.68 1984.11 1536.82C1987.93 1482.84 1993.87 1369.2 1993.87 1369.2L1921.79 1373.81Z" fill="#FF9E55"/>
<path d="M1931.39 1371.6C1931.39 1371.6 1929.72 1392.35 1939.01 1431.28C1945.84 1459.85 1983.92 1539.43 1983.92 1539.43C1983.99 1538.57 1984.05 1537.68 1984.11 1536.82C1987.93 1482.84 1993.86 1369.2 1993.86 1369.2L1931.39 1371.6Z" fill="#ED823A"/>
<path d="M1931.39 1371.6C1931.39 1371.6 1980.07 1498.19 2010.64 1554.8C2041.23 1611.4 2050.78 1627.19 2050.78 1627.19C2050.78 1627.19 2068.3 1619.95 2069.89 1615.02C2069.89 1615.02 2058.19 1505.75 2037.71 1479.11C2026.16 1464.06 2012.56 1418.9 2011.92 1403.11C2011.28 1387.3 2007.78 1356.03 2007.78 1356.03L1931.39 1371.6Z" fill="#FF9E55"/>
<path d="M1928.94 1369.2C1935.75 1369.62 2007.62 1366.82 2007.63 1362.67C2007.7 1348.25 2010.62 1324.9 2014.27 1296.56C2014.93 1291.28 2015.46 1286.03 2015.85 1280.85C2016.85 1267.36 2016.89 1254.37 2015.93 1242.63C2014.11 1220.82 2005.16 1203.23 1996 1195.03C1994.79 1194 1990.37 1197.47 1982.94 1200.58C1976.07 1203.45 1970.64 1201.39 1964.47 1199.61L1956.58 1206.78C1950.03 1213.09 1942.99 1222.73 1939.56 1231.41C1939.56 1231.41 1928.35 1369.16 1928.94 1369.2Z" fill="#2A4E96"/>
<path d="M1939.57 1231.41L1959.19 1236.12L1986.21 1311.69C1990.09 1322.54 2000.1 1329.75 2011.3 1329.75L2008.92 1367.06L1921.79 1373.81L1939.57 1231.41Z" fill="#FF9E55"/>
<path d="M1845.45 1315.55C1844.83 1309.64 1847.76 1308.54 1847.76 1308.54C1847.76 1308.54 1905.61 1295.31 1910.5 1293.51C1915.39 1291.69 1956.03 1244.49 1956.03 1244.49C1956.03 1244.49 1971.56 1224.93 1985.01 1228.57C1996.7 1231.74 2001.55 1240.87 2003.43 1249.67C2005.65 1260.17 2001.34 1270.99 1992.69 1276.96C1973.29 1290.35 1934.41 1316.75 1925.14 1319.97C1904.52 1327.13 1848.24 1323.56 1848.24 1323.56C1848.24 1323.56 1845.93 1320.19 1845.45 1315.55Z" fill="#2A4E96"/>
<path d="M1979.53 1214.23C1984.11 1209.85 1998.76 1197.8 1998.76 1197.8L1996 1195.03C1994.04 1194.6 1978.9 1206.37 1973.87 1211.01C1967.78 1216.6 1950.93 1234.85 1950.93 1234.85L1959.19 1236.12C1959.19 1236.12 1974.15 1219.39 1979.53 1214.23Z" fill="#ED823A"/>
<path d="M3290.64 1745.87H3176.12C3162.23 1745.87 3150.85 1734.14 3150.85 1719.79V1612.97C3150.85 1598.61 3162.23 1586.86 3176.12 1586.86H3290.64C3304.52 1586.86 3315.89 1598.61 3315.89 1612.97V1719.79C3315.89 1734.14 3304.52 1745.87 3290.64 1745.87Z" fill="#163560"/>
<path d="M2983.22 1350.66C2983.22 1350.66 2972.69 1351.19 2970.55 1350.3C2968.41 1349.39 2962.52 1345.81 2963.39 1341.79C2963.91 1339.28 2968.28 1343.28 2970.07 1342.54C2971.85 1341.8 2966.43 1341.25 2966.16 1340.31C2965.89 1339.36 2970.63 1338.87 2972.34 1338.57C2974.03 1338.26 2978.96 1342.34 2982.84 1343.43C2986.73 1344.53 2983.22 1350.66 2983.22 1350.66Z" fill="#FFB27D"/>
<path d="M3120.91 1338.83C3120.91 1338.83 3106.3 1355.94 3088.53 1358.39C3070.77 1360.83 3044.56 1366.27 3036.47 1366.35C3028.38 1366.43 2982.47 1351.67 2982.47 1351.67C2982.47 1351.67 2981.6 1350.17 2982.61 1346.78C2983.56 1343.56 2985.86 1342.24 2985.86 1342.24C2985.86 1342.24 3017.33 1343.04 3032.02 1345.17C3038.12 1346.05 3079.69 1320.43 3086.21 1304.98C3088.77 1298.92 3120.91 1338.83 3120.91 1338.83Z" fill="#ED7D2B"/>
<path d="M2691.72 1489.4H2400.94V1737.1H2691.72V1489.4Z" fill="#ED823A"/>
<path d="M2546.33 1489.4H2255.54V1737.1H2546.33V1489.4Z" fill="#FF9E55"/>
<path d="M2691.55 1674.28H2645.47L2649.54 1660.88L2645.47 1651.31H2691.55V1674.28Z" fill="#DD732C"/>
<path d="M2546.32 1566.05H2500.24L2504.31 1552.66L2500.24 1543.08H2546.32V1566.05Z" fill="#FFB27D"/>
<path d="M2546.33 1543.08H2592.4L2588.35 1556.48L2592.4 1566.05H2546.33V1543.08Z" fill="#DD732C"/>
<path d="M2255.54 1676.94H2301.61L2297.56 1690.33L2301.61 1699.91H2255.54V1676.94Z" fill="#FFB27D"/>
<path d="M2274.58 1539.82H2358.27V1506.19H2274.58V1539.82Z" fill="white"/>
<path d="M2660.39 1241.91H2369.61V1489.62H2660.39V1241.91Z" fill="#ED823A"/>
<path d="M2514.99 1241.91H2224.21V1489.62H2514.99V1241.91Z" fill="#FF9E55"/>
<path d="M2660.21 1426.8H2614.15L2618.19 1413.4L2614.15 1403.83H2660.21V1426.8Z" fill="#DD732C"/>
<path d="M2514.99 1318.57H2468.92L2472.96 1305.17L2468.92 1295.6H2514.99V1318.57Z" fill="#FFB27D"/>
<path d="M2514.99 1295.6H2561.07L2557.01 1309L2561.07 1318.57H2514.99V1295.6Z" fill="#DD732C"/>
<path d="M2224.2 1429.45H2270.29L2266.22 1442.85L2270.29 1452.43H2224.2V1429.45Z" fill="#FFB27D"/>
<path d="M2243.25 1292.34H2326.93V1258.71H2243.25V1292.34Z" fill="white"/>
<path d="M2819.38 1124.47H2742.27V1753.42H2819.38V1124.47Z" fill="#163560"/>
<path d="M3233.01 1603.78H3037.58C3023.19 1603.78 3011.38 1591.6 3011.38 1576.72V1526.06C3011.38 1511.18 3023.18 1499 3037.58 1499H3233.01C3247.42 1499 3259.2 1511.18 3259.2 1526.06V1576.72C3259.2 1591.6 3247.42 1603.78 3233.01 1603.78Z" fill="#699DEE"/>
<path d="M2845 1685.06L3158.93 1698.21V1564.33L2839.79 1569.72L2845 1685.06Z" fill="#234884"/>
<path d="M2929.89 1785.94C2967.84 1746.74 2967.84 1683.16 2929.89 1643.95C2891.93 1604.74 2830.4 1604.74 2792.45 1643.95C2754.5 1683.16 2754.5 1746.74 2792.45 1785.94C2830.4 1825.16 2891.93 1825.16 2929.89 1785.94Z" fill="#2A4E96"/>
<path d="M2916.56 1724.21C2921.51 1692.67 2900.78 1662.95 2870.25 1657.83C2839.72 1652.7 2810.95 1674.13 2805.99 1705.67C2801.04 1737.21 2821.78 1766.92 2852.31 1772.06C2882.84 1777.18 2911.6 1755.75 2916.56 1724.21Z" fill="#163560"/>
<path d="M3370.84 1754.67C3380.55 1712.13 3355.06 1669.52 3313.89 1659.48C3272.72 1649.43 3231.47 1675.77 3221.74 1718.31C3212.03 1760.84 3237.52 1803.46 3278.69 1813.5C3319.86 1823.54 3361.12 1797.21 3370.84 1754.67Z" fill="#2A4E96"/>
<path d="M3252.08 1736.21C3252.08 1711.02 3271.84 1690.62 3296.22 1690.62C3320.6 1690.62 3340.37 1711.02 3340.37 1736.21C3340.37 1761.4 3320.6 1781.81 3296.22 1781.81C3271.84 1781.81 3252.08 1761.4 3252.08 1736.21Z" fill="#163560"/>
<path d="M3240.69 1478.27V1538.05H3159.69L2966.1 1669.53V1767.22H3157.65C3177.68 1767.22 3193.92 1750.45 3193.92 1729.76V1707.67C3193.92 1683.78 3205.27 1661.4 3224.28 1647.8C3234.96 1640.15 3247.65 1636.05 3260.65 1636.05H3321.8C3338.34 1636.05 3351.76 1622.21 3351.76 1605.1V1511.44C3351.76 1493.12 3337.39 1478.27 3319.67 1478.27H3240.69Z" fill="#FF9E55"/>
<path d="M2845.98 1601.68L2819.38 1598.66L2968.69 1233.1C2988.22 1185.26 3033.32 1154.35 3083.58 1154.35H3208.81C3239.69 1154.35 3264.81 1180.3 3264.81 1212.2V1538.03H3239.36V1212.2C3239.36 1194.8 3225.66 1180.65 3208.81 1180.65H3083.58C3043.58 1180.65 3007.69 1205.25 2992.13 1243.32L2845.98 1601.68Z" fill="#163560"/>
<path d="M2973.82 1774.39C2969.98 1774.39 2966.87 1771.19 2966.87 1767.22V1693.65C2966.87 1643 2926.98 1601.78 2877.95 1601.78C2877.69 1601.78 2877.41 1601.77 2877.14 1601.74C2876.6 1601.67 2822.09 1595.62 2780.43 1629.17C2777.42 1631.59 2773.04 1631.04 2770.69 1627.92C2768.33 1624.78 2768.88 1620.29 2771.9 1617.85C2816.63 1581.83 2872.47 1586.81 2878.34 1587.44C2934.86 1587.66 2980.75 1635.22 2980.75 1693.65V1767.22C2980.75 1771.19 2977.64 1774.39 2973.82 1774.39Z" fill="#163560"/>
<path d="M2742.28 1734.19H2232.82V1753.42H2742.28V1734.19Z" fill="#163560"/>
<path d="M2742.26 1528.49H2724.92V1753.42H2742.26V1528.49Z" fill="#163560"/>
<path d="M3189.69 1378.58L3180.51 1499H3035.93C3035.93 1499 3028.28 1465.34 3052.26 1463.87C3076.25 1462.41 3133.69 1453.46 3133.69 1453.46C3133.69 1453.46 3130.85 1378.67 3175.1 1366.19C3182.83 1364.02 3190.32 1370.46 3189.69 1378.58Z" fill="#2A4E96"/>
<path d="M3110.25 1297.22C3110.25 1297.22 3095.44 1306.52 3079.38 1303.89C3079.38 1303.89 3076.19 1303.05 3077.76 1299.2C3076.79 1296.1 3076.9 1296.38 3076.33 1294.06C3074.93 1288.75 3074.49 1285.67 3074.49 1285.67L3083.61 1275.78L3092.24 1266.32C3094.63 1288.93 3110.25 1297.22 3110.25 1297.22Z" fill="#FFB27D"/>
<path d="M3093.62 1274.9C3093.62 1274.9 3088.67 1288.6 3076.33 1294.06C3074.93 1288.75 3074.01 1283.19 3074.01 1283.19L3083.61 1275.78L3093.62 1274.9Z" fill="#ED985F"/>
<path d="M3064.27 1285.2C3064.27 1285.2 3092.53 1288.85 3094.51 1270.9C3096.51 1252.95 3101.49 1241.33 3083.52 1238.25C3065.56 1235.16 3061.29 1241.61 3059.19 1247.44C3057.09 1253.26 3056.96 1283.79 3064.27 1285.2Z" fill="#FFB27D"/>
<path d="M3103.45 1235.33C3103.69 1235.02 3104.27 1234.74 3105.58 1234.63C3105.58 1234.63 3104.51 1233.99 3103.1 1234.01C3102.77 1232.14 3101.67 1228.85 3098.5 1228.16C3098.5 1228.16 3100.22 1229.02 3100.52 1231.01C3096.75 1227.3 3088.87 1224.8 3067.41 1227.4C3039.1 1230.83 3049.15 1249.23 3052.9 1251.33C3056.66 1253.42 3065.68 1246.93 3072.54 1247.22C3079.42 1247.51 3081.08 1257.68 3083.47 1258.99C3085.84 1260.3 3084.84 1257.86 3087.92 1256.27C3091.01 1254.68 3091.51 1260.05 3090.73 1263.58C3089.95 1267.11 3094.43 1271.56 3094.43 1271.56C3094.43 1271.56 3094.43 1271.56 3098.62 1266.53C3102.81 1261.51 3106.16 1240.79 3104.02 1236.48C3103.83 1236.1 3103.64 1235.72 3103.45 1235.33Z" fill="#2C3A64"/>
<path d="M3136.82 1409.11C3136.82 1409.11 3007.88 1415.06 2990.28 1428.25C2972.7 1441.44 2941.92 1552.67 2941.92 1552.67C2941.92 1552.67 2948.16 1558.29 2966.67 1552.67C2966.67 1552.67 2992.73 1518.39 3002.7 1494.86C3011.55 1473.98 3014.71 1463.46 3018.5 1464.52C3026.56 1466.8 3109.25 1469.75 3133.69 1453.46C3149.33 1443.02 3134.77 1409.1 3136.82 1409.11Z" fill="#163560"/>
<path d="M3110.25 1294.51C3110.25 1294.51 3126.77 1308.56 3131.99 1350.51C3137.21 1392.45 3143.04 1429.35 3139.85 1430.84C3117.24 1441.39 3056.43 1430.62 3057.95 1405.65C3059.46 1380.71 3065.05 1306.74 3079.36 1300.19C3093.7 1293.62 3110.25 1294.51 3110.25 1294.51Z" fill="#FF9E55"/>
<path d="M2992.48 1410.09C2989.79 1411.26 2986.7 1409.93 2985.57 1407.16L2958.79 1340.88C2957.68 1338.11 2958.94 1334.9 2961.63 1333.74C2964.31 1332.59 2967.41 1333.91 2968.53 1336.68L2995.31 1402.96C2996.42 1405.73 2995.15 1408.94 2992.48 1410.09Z" fill="#163560"/>
<path d="M2990.83 1372.77C2990.83 1372.77 2980.67 1375.63 2978.38 1375.23C2976.1 1374.84 2969.61 1372.64 2969.61 1368.53C2969.61 1365.96 2974.7 1368.87 2976.29 1367.76C2977.87 1366.64 2972.47 1367.34 2972.01 1366.47C2971.56 1365.6 2976.07 1364.06 2977.68 1363.38C2979.27 1362.71 2984.93 1365.6 2988.95 1365.79C2992.97 1365.99 2990.83 1372.77 2990.83 1372.77Z" fill="#FFB27D"/>
<path d="M3122.82 1330.56C3122.82 1330.56 3112.11 1350.51 3095.28 1356.85C3078.46 1363.2 3053.98 1374.36 3046.1 1376.24C3038.22 1378.11 2990.31 1373.93 2990.31 1373.93C2990.31 1373.93 2989.15 1372.64 2989.42 1369.14C2989.68 1365.75 2991.65 1363.97 2991.65 1363.97C2991.65 1363.97 3022.55 1357.74 3037.33 1356.53C3043.48 1356.03 3078.73 1321.77 3081.86 1305.24C3083.11 1298.74 3122.82 1330.56 3122.82 1330.56Z" fill="#FF9E55"/>
<path d="M2964.5 1548.93C2964.5 1548.93 2965.96 1566.33 2962.39 1568.14L2916.83 1568.04C2916.83 1568.04 2916.83 1562.61 2924.15 1561.41C2931.46 1560.19 2944.33 1555.77 2946.49 1545.91C2948.67 1536.05 2964.5 1548.93 2964.5 1548.93Z" fill="#163560"/>
<path d="M2939.97 1363.29H2960.66C2966.03 1363.29 2970.82 1366.76 2972.63 1371.97L2978.61 1389.18C2979.83 1392.65 2979.56 1396.48 2977.89 1399.75L2974.46 1406.47C2966.21 1422.57 2950.52 1433.17 2932.93 1434.47L2907.69 1436.35L2927.9 1372.35C2929.6 1366.94 2934.46 1363.29 2939.97 1363.29Z" fill="#163560"/>
<path d="M657.138 1698.15H672.229V1423.63H657.138V1698.15Z" fill="#FF9E55"/>
<path d="M628.64 1436.39H666.171C672.296 1436.39 677.256 1431.26 677.256 1424.93C677.256 1418.6 672.291 1413.48 666.171 1413.48H628.64C622.514 1413.48 617.549 1418.6 617.549 1424.93C617.549 1431.26 622.514 1436.39 628.64 1436.39Z" fill="#2A4E96"/>
<path d="M672.228 1560.89C674.054 1561.06 753.614 1609.64 753.614 1609.64V1680.58H670.853L672.228 1560.89Z" fill="#FF9E55"/>
<path d="M1136.06 1701.49C1136.06 1688.66 1125.99 1678.26 1113.57 1678.26C1101.15 1678.26 1091.08 1688.66 1091.08 1701.49C1091.08 1714.31 1101.15 1724.72 1113.57 1724.72C1125.99 1724.72 1136.06 1714.31 1136.06 1701.49Z" fill="#2A4E96"/>
<path d="M1127.65 1701.49C1127.65 1693.46 1121.35 1686.94 1113.57 1686.94C1105.79 1686.94 1099.49 1693.46 1099.49 1701.49C1099.49 1709.52 1105.79 1716.04 1113.57 1716.04C1121.35 1716.04 1127.65 1709.52 1127.65 1701.49Z" fill="#183E7A"/>
<path d="M657.138 1698.15H1145.5V1677.26H657.138V1698.15Z" fill="#FF9E55"/>
<path d="M708.053 1687.7C708.053 1667.26 692.012 1650.69 672.228 1650.69C652.439 1650.69 636.398 1667.26 636.398 1687.7C636.398 1708.15 652.439 1724.72 672.228 1724.72C692.012 1724.72 708.053 1708.15 708.053 1687.7Z" fill="#2A4E96"/>
<path d="M694.668 1687.7C694.668 1674.9 684.616 1664.53 672.228 1664.53C659.83 1664.53 649.783 1674.9 649.783 1687.7C649.783 1700.52 659.83 1710.89 672.228 1710.89C684.616 1710.89 694.668 1700.52 694.668 1687.7Z" fill="#183E7A"/>
<path d="M640.051 1400.25C640.051 1400.25 657.31 1407.34 658.224 1410.64C659.132 1413.94 659.132 1426.71 654.565 1426.71C649.993 1426.71 645.19 1415.84 643.133 1415.6C641.075 1415.37 635.359 1413.94 634.676 1411.35C633.989 1408.75 640.051 1400.25 640.051 1400.25Z" fill="#FFB27D"/>
<path d="M640.581 1405.42C643.048 1400.06 640.634 1398.02 640.634 1398.02C640.634 1398.02 590.233 1365.83 586.196 1362.47C582.149 1359.09 558.823 1300.69 558.823 1300.69C558.823 1300.69 550.408 1276.93 536.546 1275.8C524.504 1274.81 517.004 1281.78 512.432 1289.45C506.978 1298.61 507.608 1310.29 513.865 1318.87C527.922 1338.12 556.203 1376.29 563.925 1382.48C581.12 1396.25 635.395 1412.03 635.395 1412.03C635.395 1412.03 638.644 1409.65 640.581 1405.42Z" fill="#1F437C"/>
<path d="M539.486 1720.77H491.174C490.712 1720.68 490.36 1720.57 490.15 1720.46C486.922 1718.78 487.935 1706.04 488.318 1702.09C488.392 1701.36 488.449 1700.93 488.449 1700.93C488.449 1700.93 505.435 1686.89 507.771 1697.64C507.844 1697.97 507.928 1698.3 508.023 1698.62V1698.63C510.973 1708.69 524.153 1713.27 531.775 1714.53C537.591 1715.52 539.102 1719.02 539.486 1720.77Z" fill="#2C3A64"/>
<path d="M508.837 1256.96C508.837 1256.96 520.332 1276.33 539.224 1271.94C539.224 1271.94 544.473 1262.95 545.564 1255.89C545.696 1255.02 545.827 1254.18 545.958 1253.38C547.223 1245.43 548.136 1241 548.136 1241C548.136 1241 548.131 1241 548.121 1241C547.365 1240.52 522.547 1225.15 522.427 1226.09C519.729 1247.69 508.837 1256.96 508.837 1256.96Z" fill="#FFB27D"/>
<path d="M524.337 1231.64C526.174 1236.93 533.522 1247.86 545.963 1253.38C547.228 1245.44 548.141 1241.01 548.141 1241.01C548.141 1241.01 548.13 1241 548.12 1241C547.422 1240.68 523.785 1230.08 524.337 1231.64Z" fill="#ED975D"/>
<path d="M553.799 1241.04C553.799 1241.04 522.982 1243.62 521.733 1223.76C520.473 1203.91 515.655 1190.87 535.276 1188.39C554.907 1185.91 559.211 1193.22 561.185 1199.75C563.164 1206.27 561.788 1239.87 553.799 1241.04Z" fill="#FFB27D"/>
<path d="M521.981 1229.16C521.535 1229.36 514.837 1230.39 506.37 1203.54C505.037 1199.32 504.979 1190.64 510.517 1183.85C516.055 1177.05 532.652 1173.63 546.1 1173.11C559.548 1172.6 561.579 1180.69 563.532 1188.81C565.594 1197.33 573.956 1205.39 573.956 1205.39C561.726 1210.13 549.517 1198.7 544.583 1199.5C539.654 1200.29 536.867 1207.69 536.158 1210.09C535.45 1212.49 534.605 1214.44 529.009 1211.33C523.419 1208.21 525.067 1219.57 525.708 1221.79C525.708 1221.79 525.702 1227.44 521.981 1229.16Z" fill="#2A4E96"/>
<path d="M412.606 1720.77H394.381C390.56 1720.77 386.313 1716.82 385.253 1709.57C384.187 1702.33 376.335 1698.39 374.634 1692.47C372.934 1686.54 381.642 1678.21 381.642 1678.21L383.101 1676.28L384.613 1674.26L399.047 1677.77C399.047 1677.77 399.404 1681.32 399.63 1685.84C399.782 1689.1 399.866 1692.88 399.688 1696.19C399.263 1704.09 401.829 1712.59 408.616 1714.13C415.414 1715.67 412.606 1720.77 412.606 1720.77Z" fill="#2C3A64"/>
<path d="M529.748 1432.94C529.748 1432.94 527.166 1466.2 524.137 1506.16C520.017 1560.47 515.062 1627.18 514.569 1639.81C513.724 1661.76 510.322 1696.85 510.322 1696.85C510.322 1696.85 502.254 1705.19 486.108 1701.67C486.108 1701.67 471.726 1651.57 467.621 1598.56C467.553 1597.69 467.49 1596.81 467.427 1595.94C463.605 1541.97 457.658 1428.33 457.658 1428.33L529.748 1432.94Z" fill="#FF9E55"/>
<path d="M516.725 1439.51C516.725 1439.51 521.807 1451.47 512.516 1490.41C505.703 1518.98 467.621 1598.56 467.621 1598.56C467.553 1597.69 467.49 1596.81 467.427 1595.94C463.605 1541.97 457.658 1428.33 457.658 1428.33L516.725 1439.51Z" fill="#ED823A"/>
<path d="M520.132 1430.72C520.132 1430.72 471.469 1557.33 440.888 1613.93C410.307 1670.52 400.754 1686.32 400.754 1686.32C400.754 1686.32 383.232 1679.09 381.637 1674.15C381.637 1674.15 393.332 1564.87 413.813 1538.24C425.382 1523.19 438.972 1478.02 439.612 1462.23C440.247 1446.43 443.754 1415.17 443.754 1415.17L520.132 1430.72Z" fill="#FF9E55"/>
<path d="M522.616 1436.45C516.044 1434.53 449.098 1407.42 450.4 1403.5C454.935 1389.86 459.627 1366.83 465.228 1338.82C466.278 1333.61 467.459 1328.48 468.745 1323.46C472.094 1310.37 476.193 1298.09 480.86 1287.33C489.526 1267.36 503.593 1253.81 514.847 1249.18C516.312 1248.61 519.388 1253.39 525.408 1258.87C530.972 1263.91 536.757 1263.81 543.15 1264.23L548.314 1273.69C552.493 1281.88 556.057 1293.37 556.524 1302.72C556.524 1302.72 523.204 1436.61 522.616 1436.45Z" fill="#2A4E96"/>
<path d="M556.524 1302.72L536.489 1300.5L486.886 1362.66C479.768 1371.59 468.011 1374.99 457.439 1371.17L443.749 1415.17L527.912 1443.24L556.524 1302.72Z" fill="#FF9E55"/>
<path d="M524.268 1272.91C521.35 1267.21 511.355 1250.85 511.355 1250.85L514.846 1249.18C516.825 1249.44 527.376 1265.71 530.656 1271.8C534.609 1279.14 544.703 1302.12 544.703 1302.12L536.488 1300.5C536.488 1300.5 527.701 1279.62 524.268 1272.91Z" fill="#ED823A"/>
<path d="M618.609 1406.81C618.609 1406.81 635.868 1413.9 636.787 1417.2C637.7 1420.52 637.7 1433.26 633.128 1433.26C628.551 1433.26 623.753 1422.39 621.696 1422.16C619.638 1421.93 613.927 1420.52 613.234 1417.91C612.552 1415.3 618.609 1406.81 618.609 1406.81Z" fill="#FFB27D"/>
<path d="M618.557 1414.21C621.03 1408.84 618.61 1406.81 618.61 1406.81C618.61 1406.81 568.214 1374.62 564.172 1371.25C560.125 1367.88 536.81 1309.48 536.81 1309.48C536.81 1309.48 528.385 1285.72 514.527 1284.59C502.481 1283.6 494.98 1290.56 490.408 1298.24C484.954 1307.39 485.584 1319.08 491.841 1327.65C505.898 1346.9 534.18 1385.07 541.906 1391.26C559.096 1405.03 613.371 1420.82 613.371 1420.82C613.371 1420.82 616.621 1418.43 618.557 1414.21Z" fill="#2A4E96"/>
<path d="M1099.49 1505.57H895.26V1679.54H1099.49V1505.57Z" fill="#699DEE"/>
<path d="M997.374 1505.57H793.15V1679.54H997.374V1505.57Z" fill="#80B4FF"/>
<path d="M1099.37 1635.43H1067.01L1069.86 1626.02L1067.01 1619.3H1099.37V1635.43Z" fill="#9DC3F3"/>
<path d="M997.374 1559.41H965.014L967.864 1550.01L965.014 1543.28H997.374V1559.41Z" fill="#E3F0FF"/>
<path d="M997.379 1543.28H1029.73L1026.89 1552.68L1029.73 1559.41H997.379V1543.28Z" fill="#9DC3F3"/>
<path d="M793.145 1637.29H825.51L822.655 1646.7L825.51 1653.43H793.145V1637.29Z" fill="#E3F0FF"/>
<path d="M806.52 1540.98H865.293V1517.37H806.52V1540.98Z" fill="white"/>
<path d="M895.26 1507.37H1017.6V1403.14H895.26V1507.37Z" fill="#ED823A"/>
<path d="M956.432 1507.37H1078.78V1403.14H956.432V1507.37Z" fill="#FF9E55"/>
<path d="M895.333 1480.94H914.718L913.012 1475.31L914.718 1471.27H895.333V1480.94Z" fill="#DD732C"/>
<path d="M956.432 1435.4H975.822L974.11 1429.76L975.822 1425.74H956.432V1435.4Z" fill="#FFB27D"/>
<path d="M956.431 1425.74H937.047L938.758 1431.37L937.047 1435.4H956.431V1425.74Z" fill="#DD732C"/>
<path d="M1078.78 1482.05H1059.4L1061.1 1487.69L1059.4 1491.72H1078.78V1482.05Z" fill="#FFB27D"/>
<path d="M1070.77 1410.22H1035.56V1424.37H1070.77V1410.22Z" fill="white"/>
<path d="M233.001 744.359H163.556V730.128L196.326 694.047C198.793 691.261 200.866 688.72 202.556 686.433C204.246 684.129 205.622 682.01 206.656 680.103C207.7 678.179 208.446 676.391 208.887 674.743C209.333 673.09 209.548 671.492 209.548 669.963C209.548 665.319 208.409 661.661 206.136 658.995C203.863 656.35 200.619 655.006 196.394 655.006C194.027 655.006 191.932 655.456 190.106 656.35C188.263 657.228 186.736 658.447 185.513 660.008C184.284 661.558 183.345 663.412 182.689 665.579C182.038 667.731 181.718 670.083 181.718 672.624H161.535C161.535 667.931 162.349 663.498 163.976 659.32C165.593 655.163 167.939 651.516 171.004 648.389C174.065 645.279 177.76 642.818 182.101 640.997C186.437 639.177 191.318 638.266 196.74 638.266C202.073 638.266 206.798 638.954 210.902 640.309C215.012 641.686 218.461 643.626 221.232 646.173C224.02 648.714 226.124 651.825 227.563 655.505C229.006 659.201 229.725 663.347 229.725 667.953C229.725 671.443 229.19 674.83 228.124 678.092C227.053 681.344 225.552 684.612 223.594 687.858C221.652 691.126 219.295 694.404 216.545 697.743C213.784 701.076 210.703 704.533 207.322 708.126L189.444 727.619H233.001V744.359Z" fill="white"/>
<path d="M1366.49 682.84H1377.21C1382.31 682.84 1386.07 681.512 1388.55 678.884C1390.99 676.239 1392.24 672.749 1392.24 668.381C1392.24 666.473 1391.96 664.685 1391.39 663.016C1390.85 661.368 1389.99 659.959 1388.86 658.789C1387.72 657.602 1386.29 656.692 1384.57 656.02C1382.87 655.353 1380.84 655.006 1378.53 655.006C1376.67 655.006 1374.92 655.283 1373.27 655.835C1371.62 656.383 1370.19 657.174 1368.96 658.171C1367.73 659.185 1366.75 660.42 1366.04 661.883C1365.32 663.347 1364.96 664.978 1364.96 666.799H1344.86C1344.86 662.485 1345.71 658.567 1347.45 655.039C1349.2 651.516 1351.57 648.525 1354.55 646.07C1357.55 643.593 1361.06 641.686 1365.1 640.309C1369.14 638.954 1373.44 638.266 1378.04 638.266C1383.14 638.266 1387.78 638.9 1391.98 640.174C1396.18 641.447 1399.8 643.333 1402.8 645.848C1405.83 648.357 1408.16 651.484 1409.83 655.196C1411.51 658.908 1412.33 663.206 1412.33 668.088C1412.33 670.343 1412.01 672.576 1411.33 674.776C1410.66 676.976 1409.67 679.057 1408.34 680.997C1407.02 682.943 1405.42 684.731 1403.51 686.378C1401.6 688.048 1399.42 689.44 1396.96 690.589C1402.67 692.703 1406.92 695.868 1409.74 700.078C1412.54 704.289 1413.94 709.275 1413.94 715.036C1413.94 719.913 1413.03 724.281 1411.2 728.112C1409.36 731.949 1406.84 735.163 1403.65 737.775C1400.45 740.387 1396.65 742.381 1392.26 743.742C1387.88 745.113 1383.14 745.801 1378.04 745.801C1373.72 745.801 1369.5 745.199 1365.37 743.996C1361.25 742.793 1357.57 740.956 1354.34 738.463C1351.13 735.97 1348.53 732.843 1346.56 729.077C1344.58 725.327 1343.59 720.861 1343.59 715.686H1363.71C1363.71 717.648 1364.08 719.431 1364.82 721.067C1365.57 722.698 1366.59 724.091 1367.92 725.278C1369.24 726.449 1370.8 727.375 1372.61 728.047C1374.42 728.714 1376.39 729.044 1378.53 729.044C1380.9 729.044 1383.02 728.714 1384.92 728.047C1386.83 727.375 1388.44 726.394 1389.76 725.126C1391.08 723.869 1392.08 722.357 1392.79 720.601C1393.49 718.851 1393.84 716.905 1393.84 714.743C1393.84 711.974 1393.45 709.584 1392.68 707.589C1391.92 705.595 1390.81 703.98 1389.38 702.745C1387.93 701.487 1386.19 700.577 1384.12 699.975C1382.06 699.374 1379.75 699.081 1377.2 699.081H1366.49V682.84Z" fill="white"/>
</g>
</g>
<defs>
<linearGradient id="paint0_linear_498_2427" x1="1268.5" y1="1859" x2="3521" y2="48.0001" gradientUnits="userSpaceOnUse">
<stop stop-color="#E5FEFB"/>
<stop offset="1" stop-color="#A2DFD8"/>
</linearGradient>
<clipPath id="clip0_498_2427">
<rect width="3521.11" height="2000" fill="white"/>
</clipPath>
<clipPath id="clip1_498_2427">
<rect width="3499" height="1816" fill="white" transform="translate(22)"/>
</clipPath>
</defs>
</svg>
