<svg width="3522" height="2000" viewBox="0 0 3522 2000" fill="none" xmlns="http://www.w3.org/2000/svg">
<g clip-path="url(#clip0_496_1832)">
<rect width="3521.11" height="2000" fill="url(#paint0_linear_496_1832)"/>
<g clip-path="url(#clip1_496_1832)">
<g filter="url(#filter0_d_496_1832)">
<path d="M1440.53 974.128C1440.62 970.668 1442.91 967.908 1445.67 967.968C1448.43 968.021 1450.62 970.879 1450.54 974.332C1450.46 977.791 1448.16 980.545 1445.4 980.492C1442.64 980.432 1440.47 977.58 1440.53 974.128Z" fill="#81B3EF"/>
<path d="M1443.5 1005.84C1443.53 1006.93 1444.25 1007.8 1445.11 1007.76C1460.72 1007.15 1472.81 991.978 1473.26 972.465C1473.28 971.376 1472.59 970.48 1471.71 970.442C1470.84 970.405 1470.07 971.269 1470.03 972.383C1469.51 989.639 1458.84 1003.04 1445.05 1003.73C1444.16 1003.77 1443.47 1004.73 1443.5 1005.84Z" fill="#81B3EF"/>
<path d="M1443.25 997.455C1443.28 998.576 1444.05 999.44 1444.94 999.38C1456.8 998.622 1465.97 987.111 1466.56 972.27C1466.6 971.157 1465.92 970.209 1465.03 970.172H1465.01C1464.14 970.134 1463.39 970.977 1463.33 972.075C1462.73 984.75 1454.9 994.566 1444.77 995.349C1443.9 995.416 1443.23 996.358 1443.25 997.455Z" fill="#81B3EF"/>
<path d="M1443.02 989.308V989.338C1443.05 990.475 1443.83 991.346 1444.73 991.249C1453.01 990.391 1459.38 982.395 1460.07 972.045C1460.13 970.917 1459.44 969.946 1458.52 969.908H1458.51C1457.65 969.87 1456.92 970.691 1456.84 971.751C1456.18 980.011 1451.1 986.382 1444.5 987.209C1443.64 987.322 1442.98 988.24 1443.02 989.308Z" fill="#81B3EF"/>
<path d="M49.7521 974.128C49.6742 970.668 47.3684 967.908 44.6061 967.968C41.8451 968.021 39.665 970.879 39.7443 974.332C39.8222 977.791 42.1266 980.545 44.889 980.492C47.6499 980.432 49.8245 977.58 49.7521 974.128Z" fill="#81B3EF"/>
<path d="M46.7851 1005.84C46.7496 1006.93 46.0347 1007.8 45.164 1007.76C29.5659 1007.15 17.4751 991.978 17.024 972.465C17.0008 971.376 17.6964 970.48 18.5671 970.442C19.4501 970.405 20.2182 971.269 20.2483 972.383C20.7704 989.639 31.4521 1003.04 45.2419 1003.73C46.1249 1003.77 46.8152 1004.73 46.7851 1005.84Z" fill="#81B3EF"/>
<path d="M47.0339 997.455L47.0271 997.462C46.997 998.584 46.2411 999.44 45.3459 999.38C33.4832 998.622 24.3161 987.111 23.727 972.27C23.6791 971.157 24.3694 970.209 25.2646 970.172H25.2756C26.1462 970.134 26.8966 970.977 26.9513 972.075C27.5568 984.75 35.3804 994.566 45.514 995.349C46.3915 995.416 47.064 996.358 47.0339 997.455Z" fill="#81B3EF"/>
<path d="M47.2662 989.308V989.338C47.2307 990.475 46.4557 991.346 45.5549 991.249C37.2761 990.391 30.9067 982.395 30.2219 972.045C30.1495 970.917 30.852 969.946 31.7596 969.908H31.7774C32.6357 969.87 33.3616 970.691 33.4518 971.751C34.112 980.011 39.1855 986.382 45.79 987.209C46.6484 987.322 47.2963 988.24 47.2662 989.308Z" fill="#81B3EF"/>
<path d="M2656.18 858.525C2656.11 855.065 2653.79 852.305 2651.04 852.365C2648.25 852.418 2646.1 855.276 2646.16 858.729C2646.26 862.188 2648.56 864.942 2651.3 864.889C2654.08 864.829 2656.25 861.977 2656.18 858.525Z" fill="#81B3EF"/>
<path d="M2653.2 890.239C2653.19 891.33 2652.45 892.195 2651.6 892.157C2635.99 891.547 2623.91 876.375 2623.45 856.864C2623.43 855.773 2624.12 854.877 2624.99 854.839C2625.89 854.802 2626.65 855.666 2626.67 856.78C2627.21 874.036 2637.88 887.434 2651.67 888.126C2652.55 888.17 2653.23 889.126 2653.2 890.239Z" fill="#81B3EF"/>
<path d="M2653.45 881.852C2653.42 882.972 2652.67 883.837 2651.77 883.777C2639.9 883.019 2630.75 871.508 2630.16 856.667C2630.1 855.553 2630.79 854.606 2631.69 854.569C2632.56 854.531 2633.31 855.374 2633.37 856.471C2633.98 869.146 2641.8 878.963 2651.94 879.746C2652.82 879.814 2653.48 880.755 2653.45 881.852Z" fill="#81B3EF"/>
<path d="M2653.7 873.705V873.735C2653.67 874.872 2652.89 875.743 2651.99 875.646C2643.7 874.788 2637.35 866.792 2636.66 856.442C2636.57 855.314 2637.28 854.343 2638.2 854.305C2639.07 854.267 2639.81 855.088 2639.88 856.148C2640.53 864.408 2645.6 870.779 2652.21 871.606C2653.09 871.719 2653.72 872.637 2653.7 873.705Z" fill="#81B3EF"/>
<path d="M1965.49 1054.72L1964.08 1151.38L1989.83 1151.96L1991.24 1055.31L1965.49 1054.72Z" fill="#95BEEF"/>
<path d="M1965.01 1202.99L1964.93 1216.38L1990.39 1216.61L1990.46 1203.22L1965.01 1202.99Z" fill="#95BEEF"/>
<path d="M1970.04 1210.71L1969.93 1230.72L1985.22 1230.87L1985.35 1210.86L1970.04 1210.71Z" fill="#95BEEF"/>
<path d="M1965.01 1202.99L1964.93 1216.38L1990.39 1216.61L1990.46 1203.22L1965.01 1202.99Z" fill="#95BEEF"/>
<path d="M1964.29 1235.19H1964.27L1964.29 1235.18V1235.17H1964.3L1966.2 1232.89C1969.1 1229.42 1972.95 1227.5 1976.94 1227.54C1980.95 1227.58 1984.77 1229.56 1987.63 1233.08L1989.5 1235.4H1989.52L1989.54 1235.42H1989.52L1989.42 1251.27H1989.43L1987.48 1253.56C1984.61 1256.96 1980.78 1258.83 1976.83 1258.8L1976.7 1258.79C1972.75 1258.77 1968.95 1256.82 1966.1 1253.36L1964.19 1251.03L1964.29 1235.19Z" fill="#95BEEF"/>
<path d="M1969.49 1248.62L1969.41 1261.41L1983.98 1261.55L1984.05 1248.75L1969.49 1248.62Z" fill="#95BEEF"/>
<path d="M1979.85 1239.85L1979.54 1294.53L1976.64 1298.03L1973.61 1294.47L1973.92 1239.79L1979.85 1239.85Z" fill="#95BEEF"/>
<path d="M1962.39 1209.71L1993.13 1209.99L2009.02 1188.64L1946.75 1188.07L1962.39 1209.71Z" fill="#95BEEF"/>
<path d="M1994.74 1127.35L1961.74 1127.05L1944.74 1141.49L2011.56 1142.11L1994.74 1127.35Z" fill="#95BEEF"/>
<path d="M1942.68 1138.4L1942.38 1189.18L2013.26 1189.83L2013.56 1139.06L1942.68 1138.4Z" fill="#6FA1DE"/>
<path d="M2093.24 383.003H1833.74V455.539H2093.24V383.003Z" fill="#81B3EF"/>
<path d="M1989.01 979.124C2010.65 963.469 2024.04 932.477 2021.6 903.75C2019.3 876.91 2004.22 856.578 1979.16 846.497C1949.33 834.499 1947.66 803.749 1948.33 791.079C1949.7 765.013 1963.14 741.016 1978.28 737.585L1977.54 732.489C1960.36 736.381 1945.72 761.968 1944.19 790.741C1943.51 803.944 1945.79 816.273 1950.81 826.413C1956.6 838.111 1965.72 846.535 1977.88 851.431C2001.31 860.851 2015.38 879.617 2017.48 904.298C2019.76 931.056 2007.2 959.978 1986.95 974.64L1989.01 979.124Z" fill="#95BEEF"/>
<path d="M1940.3 705.986L1938.92 691.429C1933.87 692.175 1915.44 687.327 1899.7 670.884C1885.84 656.397 1878.26 637.533 1877.15 614.817C1876.07 593.084 1880.51 575.209 1890.31 561.693C1909.75 534.891 1944.25 533.079 1944.59 533.067L1944.21 518.412C1942.59 518.479 1904.52 520.369 1881.7 551.76C1869.65 568.328 1864.18 589.845 1865.45 615.716C1866.76 642.237 1876.02 665.207 1892.2 682.141C1909.91 700.653 1931.37 707.313 1940.3 705.986Z" fill="#95BEEF"/>
<path d="M1899.2 496.013H2027.23C2046.87 496.013 2062.78 476.088 2062.78 451.505C2062.78 426.924 2046.85 407 2027.23 407H1899.2C1879.57 407 1863.66 426.928 1863.66 451.505C1863.66 476.085 1879.57 496.013 1899.2 496.013Z" fill="#95BEEF"/>
<path d="M1983.33 547.638H1946.38V706.895H1983.33V547.638Z" fill="#95BEEF"/>
<path d="M2057.8 866.763L2002.26 980.492L2022.59 996.079L2078.16 882.349L2057.8 866.763Z" fill="#95BEEF"/>
<path d="M2001.76 445.662V556.759C2001.76 582.284 1985.24 602.981 1964.85 602.981C1944.45 602.981 1927.94 582.284 1927.94 556.759V445.662H2001.76Z" fill="#95BEEF"/>
<path d="M1945 545.833C1940.28 559.496 1945.33 575.409 1956.25 581.311C1967.16 587.209 1979.87 580.893 1984.57 567.227C1989.29 553.563 1984.24 537.648 1973.33 531.752C1962.43 525.853 1949.72 532.169 1945 545.833Z" fill="#95BEEF"/>
<path d="M2010.54 441.793C2006.66 453.365 2011.03 466.73 2020.27 471.584C2029.51 476.436 2040.18 470.966 2044.05 459.392C2047.93 447.816 2043.56 434.451 2034.32 429.601C2025.08 424.749 2014.41 430.218 2010.54 441.793Z" fill="#6FA1DE"/>
<path d="M1882.51 442.691C1878.53 454.211 1882.8 467.633 1891.99 472.606C1901.19 477.583 1911.91 472.255 1915.89 460.735C1919.86 449.21 1915.6 435.789 1906.4 430.815C1897.2 425.842 1886.49 431.165 1882.51 442.691Z" fill="#6FA1DE"/>
<path d="M2109.26 820.411L2008.89 654.308C1993.49 628.843 1964.53 623.82 1944.19 643.094C1923.87 662.366 1919.85 698.628 1935.24 724.093L2035.63 890.201C2051.02 915.664 2079.97 920.682 2100.31 901.41C2120.65 882.145 2124.65 845.872 2109.26 820.411Z" fill="#95BEEF"/>
<path d="M1977.12 718.478C1989.74 714.427 1997.38 698.284 1994.14 682.487C1990.9 666.695 1978.01 657.137 1965.39 661.184C1952.79 665.234 1945.15 681.377 1948.39 697.174C1951.61 712.97 1964.5 722.526 1977.12 718.478Z" fill="#6FA1DE"/>
<path d="M2078.24 883.861C2090.88 879.979 2098.66 863.942 2095.55 848.1C2092.45 832.265 2079.64 822.538 2066.99 826.413C2054.34 830.294 2046.58 846.34 2049.68 862.174C2052.77 878.016 2065.59 887.742 2078.24 883.861Z" fill="#6FA1DE"/>
<path d="M2005.63 940.684L1958.48 1036.37C1951.25 1051.04 1954.88 1070.26 1966.59 1079.32C1978.31 1088.37 1993.67 1083.82 2000.89 1069.15L2048.04 973.467C2055.27 958.798 2051.64 939.571 2039.92 930.514C2028.21 921.465 2012.85 926.015 2005.63 940.684Z" fill="#95BEEF"/>
<path d="M1988.44 1045.67C1985.14 1039.92 1978.73 1038.59 1974.13 1042.71C1969.53 1046.82 1968.47 1054.86 1971.76 1060.61C1975.04 1066.37 1981.47 1067.7 1986.06 1063.58C1990.65 1059.46 1991.72 1051.43 1988.44 1045.67Z" fill="#6FA1DE"/>
<path d="M2035.58 947.296C2032.3 941.542 2025.87 940.21 2021.28 944.325C2016.69 948.447 2015.62 956.481 2018.9 962.236C2022.2 967.99 2028.61 969.321 2033.2 965.207C2037.81 961.085 2038.87 953.051 2035.58 947.296Z" fill="#6FA1DE"/>
<path d="M454.652 943.693L432.221 944.07L433.121 1028.26L455.552 1027.88L454.652 943.693Z" fill="#95BEEF"/>
<path d="M459.284 1006.38L430.563 1007.25L416.082 1020.41L474.258 1018.65L459.284 1006.38Z" fill="#95BEEF"/>
<path d="M400.985 1167.69C402.137 1167.69 403.278 1167.05 404.046 1165.83C405.374 1163.71 405.085 1160.65 403.392 1158.98L392.232 1147.98L420.575 1058.6L467.2 1056.93L503.308 1145.3L494.806 1153.46C493.1 1155.1 492.782 1158.15 494.091 1160.29C495.394 1162.43 497.837 1162.83 499.542 1161.19L510.62 1150.56C512.11 1149.13 512.574 1146.57 511.713 1144.47L473.012 1049.76C472.327 1048.08 470.934 1047.04 469.434 1047.1L417.795 1048.95C416.24 1049 414.865 1050.21 414.295 1052.02L383.928 1147.76C383.291 1149.77 383.783 1152.05 385.135 1153.39L398.583 1166.64C399.291 1167.35 400.144 1167.69 400.985 1167.69Z" fill="#95BEEF"/>
<path d="M476.973 1017.46L409.264 1019.87L410.26 1063.43L477.964 1061.01L476.973 1017.46Z" fill="#95BEEF"/>
<path d="M451.145 1167.38C451.559 1167.38 451.975 1167.3 452.377 1167.13C454.417 1166.28 455.522 1163.52 454.838 1160.97L449.85 1142.21L447.28 1047.07C447.207 1044.39 445.424 1042.28 443.263 1042.37C441.114 1042.46 439.433 1044.72 439.504 1047.4L442.092 1143.24C442.104 1143.71 442.171 1144.18 442.29 1144.62L447.459 1164.05C448 1166.09 449.519 1167.38 451.145 1167.38Z" fill="#95BEEF"/>
<path d="M582.022 372.115H338V440.329H582.022V372.115Z" fill="#95BEEF"/>
<path d="M445.033 953.246C465.379 938.524 477.975 909.376 475.67 882.364C473.515 857.126 459.345 838.011 435.763 828.527C407.713 817.242 406.146 788.327 406.77 776.415C408.067 751.903 420.705 729.336 434.94 726.111L434.25 721.317C418.088 724.975 404.315 749.037 402.893 776.095C402.238 788.51 404.381 800.108 409.106 809.638C414.552 820.643 423.124 828.564 434.574 833.168C456.596 842.022 469.816 859.676 471.797 882.883C473.947 908.045 462.143 935.238 443.088 949.026L445.033 953.246Z" fill="#95BEEF"/>
<path d="M414.918 673.218L415.518 659.452C410.751 659.129 394.295 650.92 381.837 632.516C370.856 616.3 366.251 597.286 368.136 576.017C369.937 555.67 376.344 540.001 387.162 529.453C408.614 508.54 440.818 513.819 441.142 513.877L442.667 500.222C441.166 499.959 405.641 494.031 380.462 518.515C367.17 531.436 359.34 550.268 357.192 574.495C354.988 599.331 360.607 622.475 373.438 641.432C387.457 662.15 406.482 672.648 414.918 673.218Z" fill="#95BEEF"/>
<path d="M399.544 478.388H519.955C538.407 478.388 553.374 459.652 553.374 436.535C553.374 413.424 538.407 394.683 519.955 394.683H399.544C381.089 394.683 366.121 413.424 366.121 436.535C366.121 459.652 381.089 478.388 399.544 478.388Z" fill="#95BEEF"/>
<path d="M478.653 526.936H443.908V676.7H478.653V526.936Z" fill="#95BEEF"/>
<path d="M347.545 795.48L330.891 814.286L397.934 907.391L414.589 888.578L347.545 795.48Z" fill="#95BEEF"/>
<path d="M495.991 431.041V535.512C495.991 559.52 480.448 578.98 461.283 578.98C442.108 578.98 426.57 559.52 426.57 535.512V431.041H495.991Z" fill="#95BEEF"/>
<path d="M442.62 525.24C438.189 538.088 442.932 553.055 453.192 558.602C463.453 564.151 475.406 558.211 479.837 545.358C484.268 532.51 479.525 517.544 469.259 511.998C459.004 506.451 447.051 512.39 442.62 525.24Z" fill="#95BEEF"/>
<path d="M504.237 427.404C500.604 438.287 504.715 450.856 513.394 455.417C522.087 459.981 532.133 454.836 535.769 443.954C539.418 433.067 535.304 420.502 526.611 415.938C517.918 411.375 507.886 416.518 504.237 427.404Z" fill="#95BEEF"/>
<path d="M383.856 428.246C380.122 439.08 384.12 451.704 392.772 456.381C401.429 461.058 411.51 456.051 415.244 445.213C418.978 434.379 414.98 421.759 406.328 417.078C397.671 412.401 387.591 417.411 383.856 428.246Z" fill="#95BEEF"/>
<path d="M363.183 833.332L478.598 701.098C496.292 680.826 497.511 646.43 481.318 624.275C465.132 602.118 437.672 600.592 419.973 620.864L304.561 753.096C286.869 773.367 285.65 807.765 301.836 829.917C318.028 852.079 345.496 853.606 363.183 833.332Z" fill="#95BEEF"/>
<path d="M427.838 669.469C431.968 683.903 444.708 691.441 456.236 686.268C467.762 681.096 473.785 665.145 469.649 650.71C465.518 636.276 452.783 628.738 441.257 633.911C429.729 639.083 423.707 655.034 427.838 669.469Z" fill="#95BEEF"/>
<path d="M313.035 802.498C317.039 816.987 329.712 824.69 341.283 819.673C352.851 814.655 359.005 798.784 355 784.293C350.99 769.803 338.317 762.1 326.746 767.119C315.178 772.137 309.024 788.006 313.035 802.498Z" fill="#95BEEF"/>
<path d="M370.081 892.971L426.378 971.766C435.012 983.847 449.828 984.878 459.471 974.068C469.12 963.258 469.941 944.709 461.314 932.628L405.017 853.831C396.383 841.75 381.567 840.727 371.924 851.529C362.277 862.339 361.454 880.897 370.081 892.971Z" fill="#95BEEF"/>
<path d="M441.082 940.429C436.063 942.602 433.392 949.492 435.127 955.781C436.861 962.069 442.361 965.418 447.387 963.244C452.406 961.069 455.084 954.179 453.342 947.891C451.607 941.602 446.108 938.254 441.082 940.429Z" fill="#95BEEF"/>
<path d="M382.852 860.917C377.827 863.091 375.155 869.974 376.891 876.262C378.625 882.551 384.125 885.899 389.15 883.724C394.169 881.551 396.846 874.668 395.105 868.372C393.371 862.084 387.871 858.735 382.852 860.917Z" fill="#95BEEF"/>
<path d="M322.521 798.385C324.719 806.321 331.66 810.541 337.999 807.787C344.34 805.042 347.708 796.345 345.51 788.409C343.319 780.471 336.373 776.251 330.039 779C323.693 781.748 320.325 790.442 322.521 798.385Z" fill="#95BEEF"/>
<path d="M3496.5 1480.68H-5.54908C-8.85678 1480.68 -11.5645 1477.29 -11.5645 1473.14V1395.34C-11.5645 1391.2 -8.85678 1387.8 -5.54908 1387.8H3496.5C3499.81 1387.8 3502.52 1391.2 3502.52 1395.34V1473.14C3502.52 1477.29 3499.81 1480.68 3496.5 1480.68Z" fill="#81B3EF"/>
<path d="M1315.74 1234.2H1172.99V1388.98H1315.74V1234.2Z" fill="#81B3EF"/>
<path d="M1797.45 1234.2H1654.69V1388.98H1797.45V1234.2Z" fill="#81B3EF"/>
<path d="M2355.72 1234.2H2212.95V1388.98H2355.72V1234.2Z" fill="#81B3EF"/>
<path d="M2883.28 1234.2H2740.53V1388.98H2883.28V1234.2Z" fill="#81B3EF"/>
<path d="M3338.27 1234.2H3195.52V1388.98H3338.27V1234.2Z" fill="#81B3EF"/>
<path d="M875.518 1234.2H732.754V1388.98H875.518V1234.2Z" fill="#81B3EF"/>
<path d="M377.865 1234.2H235.107V1388.98H377.865V1234.2Z" fill="#81B3EF"/>
<path d="M1960.87 395.005H1952V386.106H1960.87V395.005ZM1943.11 395.005H1934.24V386.106H1943.11V395.005ZM1925.37 395.005H1916.49V386.106H1925.37V395.005ZM1907.6 395.005H1898.73V386.106H1907.6V395.005ZM1889.85 395.005H1880.96V386.106H1889.85V395.005ZM1872.09 395.005H1863.21V386.106H1872.09V395.005ZM1854.34 395.005H1845.47V386.106H1854.34V395.005ZM1836.58 395.005H1827.7V386.106H1836.58V395.005ZM1818.83 395.005H1809.94V386.106H1818.83V395.005ZM1801.07 395.005H1792.19V386.106H1801.07V395.005ZM1783.3 395.005H1774.43V386.106H1783.3V395.005ZM1765.56 395.005H1756.68V386.106H1765.56V395.005ZM1747.79 395.005H1738.92V386.106H1747.79V395.005ZM1730.04 395.005H1721.17V386.106H1730.04V395.005ZM1712.28 395.005H1703.41V386.106H1712.28V395.005ZM1694.53 395.005H1685.66V386.106H1694.53V395.005ZM1676.77 395.005H1667.9V386.106H1676.77V395.005ZM1659.02 395.005H1650.14V386.106H1659.02V395.005ZM1641.26 395.005H1632.38V386.106H1641.26V395.005ZM1623.51 395.005H1614.63V386.106H1623.51V395.005ZM1605.75 395.005H1596.87V386.106H1605.75V395.005ZM1588 395.005H1579.12V386.106H1588V395.005ZM1570.24 395.005H1561.36V386.106H1570.24V395.005ZM1552.49 395.005H1543.61V386.106H1552.49V395.005ZM1534.73 395.005H1525.85V386.106H1534.73V395.005ZM1516.97 395.005H1508.1V386.106H1516.97V395.005ZM1499.21 395.005H1490.34V386.106H1499.21V395.005ZM1481.46 395.005H1472.59V386.106H1481.46V395.005ZM1463.7 395.005H1454.83V386.106H1463.7V395.005ZM1445.95 395.005H1437.06V386.106H1445.95V395.005ZM1428.19 395.005H1419.32V386.106H1428.19V395.005ZM1410.44 395.005H1401.55V386.106H1410.44V395.005ZM1392.68 395.005H1383.8V386.106H1392.68V395.005ZM1374.93 395.005H1366.04V386.106H1374.93V395.005ZM1357.16 395.005H1348.29V386.106H1357.16V395.005ZM1339.42 395.005H1330.53V386.106H1339.42V395.005ZM1321.65 395.005H1312.78V386.106H1321.65V395.005ZM1303.89 395.005H1295.02V386.106H1303.89V395.005ZM1286.14 395.005H1277.27V386.106H1286.14V395.005ZM1268.38 395.005H1259.51V386.106H1268.38V395.005ZM1250.63 395.005H1241.76V386.106H1250.63V395.005ZM1232.87 395.005H1223.99V386.106H1232.87V395.005ZM1215.12 395.005H1206.25V386.106H1215.12V395.005ZM1197.36 395.005H1188.48V386.106H1197.36V395.005ZM1179.61 395.005H1170.72V386.106H1179.61V395.005ZM1161.85 395.005H1152.97V386.106H1161.85V395.005ZM1144.08 395.005H1135.21V386.106H1144.08V395.005ZM1126.34 395.005H1117.46V386.106H1126.34V395.005ZM1108.57 395.005H1099.7V386.106H1108.57V395.005ZM1090.82 395.005H1081.95V386.106H1090.82V395.005ZM1073.08 395.005H1064.19V386.106H1073.08V395.005ZM1055.31 395.005H1046.44V386.106H1055.31V395.005ZM1037.55 395.005H1028.68V386.106H1037.55V395.005ZM1019.8 395.005H1010.92V386.106H1019.8V395.005ZM1002.04 395.005H993.174V386.106H1002.04V395.005ZM984.289 395.005H975.405V386.106H984.289V395.005ZM966.534 395.005H957.65V386.106H966.534V395.005ZM948.779 395.005H939.895V386.106H948.779V395.005ZM931.025 395.005H922.14V386.106H931.025V395.005ZM913.27 395.005H904.385V386.106H913.27V395.005ZM895.501 395.005H886.63V386.106H895.501V395.005ZM877.746 395.005H868.875V386.106H877.746V395.005ZM860.005 395.005H851.12V386.106H860.005V395.005ZM842.236 395.005H833.365V386.106H842.236V395.005ZM824.481 395.005H815.61V386.106H824.481V395.005ZM806.726 395.005H797.855V386.106H806.726V395.005ZM788.971 395.005H780.1V386.106H788.971V395.005ZM771.216 395.005H762.332V386.106H771.216V395.005ZM753.461 395.005H744.577V386.106H753.461V395.005ZM735.706 395.005H726.822V386.106H735.706V395.005ZM717.951 395.005H709.067V386.106H717.951V395.005ZM700.196 395.005H691.312V386.106H700.196V395.005ZM682.428 395.005H673.557V386.106H682.428V395.005ZM664.686 395.005H655.802V386.106H664.686V395.005ZM646.918 395.005H638.047V386.106H646.918V395.005ZM629.163 395.005H620.292V386.106H629.163V395.005ZM611.408 395.005H602.523V386.106H611.408V395.005ZM593.653 395.005H584.782V386.106H593.653V395.005ZM575.898 395.005H567.014V386.106H575.898V395.005ZM558.143 395.005H549.258V386.106H558.143V395.005ZM540.388 395.005H531.517V386.106H540.388V395.005ZM522.633 395.005H513.749V386.106H522.633V395.005ZM504.878 395.005H495.992V386.106H504.878V395.005ZM487.119 395.005H478.239V386.106H487.119V395.005ZM469.36 395.005H460.48V386.106H469.36V395.005ZM451.606 395.005H442.727V386.106H451.606V395.005ZM433.847 395.005H424.974V386.106H433.847V395.005ZM416.095 395.005H407.215V386.106H416.095V395.005ZM398.336 395.005H389.462V386.106H398.336V395.005ZM380.582 395.005H371.702V386.106H380.582V395.005ZM362.823 395.005H353.944V386.106H362.823V395.005ZM345.069 395.005H336.191V386.106H345.069V395.005ZM327.31 395.005H318.432V386.106H327.31V395.005ZM309.558 395.005H300.678V386.106H309.558V395.005ZM291.799 395.005H282.926V386.106H291.799V395.005ZM274.04 395.005H265.167V386.106H274.04V395.005ZM256.286 395.005H247.408V386.106H256.286V395.005ZM238.533 395.005H229.654V386.106H238.533V395.005ZM220.774 395.005H211.895V386.106H220.774V395.005ZM203.022 395.005H194.141V386.106H203.022V395.005ZM185.262 395.005H176.389V386.106H185.262V395.005ZM167.509 395.005H158.63V386.106H167.509V395.005ZM149.75 395.005H140.871V386.106H149.75V395.005ZM131.998 395.005H123.117V386.106H131.998V395.005ZM114.239 395.005H105.358V386.106H114.239V395.005ZM96.4849 395.005H87.6046V386.106H96.4849V395.005ZM78.7258 395.005H69.8456V386.106H78.7258V395.005ZM60.9722 395.005H52.0933V386.106H60.9722V395.005ZM43.2131 395.005H34.3343V386.106H43.2131V395.005ZM25.4609 395.005H16.5806V386.106H25.4609V395.005ZM7.70183 395.005H-1.1784V386.106H7.70183V395.005ZM-10.0518 395.005H-18.932V386.106H-10.0518V395.005ZM-27.8108 395.005H-36.6911V386.106H-27.8108V395.005ZM-45.5645 395.005H-54.4434V386.106H-45.5645V395.005Z" fill="#5A75D1"/>
<path d="M1974.2 386.106H1969.75V395.005H1974.2V386.106Z" fill="#5A75D1"/>
<path d="M1987.62 390H-73.0775C-76.7584 390 -79.7422 381.389 -79.7422 370.771C-79.7422 360.149 -76.7584 351.54 -73.0775 351.54H1987.62C1991.29 351.54 1994.27 360.149 1994.27 370.771C1994.27 381.389 1991.29 390 1987.62 390Z" fill="#5A75D1"/>
<path d="M1991.27 386.106H1986.82V395.005H1991.27V386.106Z" fill="#5A75D1"/>
<path d="M4015.46 395.005H4006.59V386.106H4015.46V395.005ZM3997.7 395.005H3988.83V386.106H3997.7V395.005ZM3979.96 395.005H3971.09V386.106H3979.96V395.005ZM3962.19 395.005H3953.32V386.106H3962.19V395.005ZM3944.45 395.005H3935.55V386.106H3944.45V395.005ZM3926.68 395.005H3917.81V386.106H3926.68V395.005ZM3908.93 395.005H3900.04V386.106H3908.93V395.005ZM3891.18 395.005H3882.29V386.106H3891.18V395.005ZM3873.42 395.005H3864.55V386.106H3873.42V395.005ZM3855.65 395.005H3846.78V386.106H3855.65V395.005ZM3837.91 395.005H3829.01V386.106H3837.91V395.005ZM3820.14 395.005H3811.28V386.106H3820.14V395.005ZM3802.38 395.005H3793.51V386.106H3802.38V395.005ZM3784.64 395.005H3775.77V386.106H3784.64V395.005ZM3766.87 395.005H3758V386.106H3766.87V395.005ZM3749.13 395.005H3740.23V386.106H3749.13V395.005ZM3731.36 395.005H3722.49V386.106H3731.36V395.005ZM3713.59 395.005H3704.74V386.106H3713.59V395.005ZM3695.85 395.005H3686.97V386.106H3695.85V395.005ZM3678.1 395.005H3669.23V386.106H3678.1V395.005ZM3660.33 395.005H3651.46V386.106H3660.33V395.005ZM3642.59 395.005H3633.69V386.106H3642.59V395.005ZM3624.82 395.005H3615.95V386.106H3624.82V395.005ZM3607.05 395.005H3598.19V386.106H3607.05V395.005ZM3589.32 395.005H3580.45V386.106H3589.32V395.005ZM3571.55 395.005H3562.68V386.106H3571.55V395.005ZM3553.81 395.005H3544.91V386.106H3553.81V395.005ZM3536.04 395.005H3527.17V386.106H3536.04V395.005ZM3518.29 395.005H3509.42V386.106H3518.29V395.005ZM3500.55 395.005H3491.65V386.106H3500.55V395.005ZM3482.78 395.005H3473.91V386.106H3482.78V395.005ZM3465.01 395.005H3456.14V386.106H3465.01V395.005ZM3447.27 395.005H3438.37V386.106H3447.27V395.005ZM3429.51 395.005H3420.63V386.106H3429.51V395.005ZM3411.75 395.005H3402.88V386.106H3411.75V395.005ZM3394 395.005H3385.13V386.106H3394V395.005ZM3376.24 395.005H3367.37V386.106H3376.24V395.005ZM3358.49 395.005H3349.61V386.106H3358.49V395.005ZM3340.73 395.005H3331.87V386.106H3340.73V395.005ZM3322.97 395.005H3314.1V386.106H3322.97V395.005ZM3305.23 395.005H3296.33V386.106H3305.23V395.005ZM3287.46 395.005H3278.59V386.106H3287.46V395.005ZM3269.69 395.005H3260.82V386.106H3269.69V395.005ZM3251.95 395.005H3243.07V386.106H3251.95V395.005ZM3234.18 395.005H3225.33V386.106H3234.18V395.005ZM3216.43 395.005H3207.56V386.106H3216.43V395.005ZM3198.69 395.005H3189.82V386.106H3198.69V395.005ZM3180.92 395.005H3172.05V386.106H3180.92V395.005ZM3163.18 395.005H3154.28V386.106H3163.18V395.005ZM3145.41 395.005H3136.54V386.106H3145.41V395.005ZM3127.64 395.005H3118.78V386.106H3127.64V395.005ZM3109.91 395.005H3101.01V386.106H3109.91V395.005ZM3092.14 395.005H3083.27V386.106H3092.14V395.005ZM3074.37 395.005H3065.5V386.106H3074.37V395.005ZM3056.63 395.005H3047.75V386.106H3056.63V395.005ZM3038.88 395.005H3030.01V386.106H3038.88V395.005ZM3021.14 395.005H3012.24V386.106H3021.14V395.005ZM3003.37 395.005H2994.5V386.106H3003.37V395.005ZM2985.6 395.005H2976.73V386.106H2985.6V395.005ZM2967.86 395.005H2958.96V386.106H2967.86V395.005ZM2950.1 395.005H2941.22V386.106H2950.1V395.005ZM2932.33 395.005H2923.46V386.106H2932.33V395.005ZM2914.59 395.005H2905.69V386.106H2914.59V395.005ZM2896.82 395.005H2887.95V386.106H2896.82V395.005ZM2879.06 395.005H2870.2V386.106H2879.06V395.005ZM2861.31 395.005H2852.43V386.106H2861.31V395.005ZM2843.56 395.005H2834.69V386.106H2843.56V395.005ZM2825.82 395.005H2816.92V386.106H2825.82V395.005ZM2808.05 395.005H2799.18V386.106H2808.05V395.005ZM2790.28 395.005H2781.41V386.106H2790.28V395.005ZM2772.54 395.005H2763.66V386.106H2772.54V395.005ZM2754.77 395.005H2745.91V386.106H2754.77V395.005ZM2737.02 395.005H2728.15V386.106H2737.02V395.005ZM2719.27 395.005H2710.38V386.106H2719.27V395.005ZM2701.51 395.005H2692.64V386.106H2701.51V395.005ZM2683.74 395.005H2674.87V386.106H2683.74V395.005ZM2666.01 395.005H2657.13V386.106H2666.01V395.005ZM2648.24 395.005H2639.37V386.106H2648.24V395.005ZM2630.5 395.005H2621.6V386.106H2630.5V395.005ZM2612.73 395.005H2603.86V386.106H2612.73V395.005ZM2594.96 395.005H2586.09V386.106H2594.96V395.005ZM2577.22 395.005H2568.34V386.106H2577.22V395.005ZM2559.47 395.005H2550.6V386.106H2559.47V395.005ZM2541.7 395.005H2532.83V386.106H2541.7V395.005ZM2523.96 395.005H2515.06V386.106H2523.96V395.005ZM2506.19 395.005H2497.32V386.106H2506.19V395.005ZM2488.43 395.005H2479.55V386.106H2488.43V395.005ZM2470.69 395.005H2461.81V386.106H2470.69V395.005ZM2452.92 395.005H2444.05V386.106H2452.92V395.005ZM2435.18 395.005H2426.28V386.106H2435.18V395.005ZM2417.41 395.005H2408.53V386.106H2417.41V395.005ZM2399.66 395.005H2390.79V386.106H2399.66V395.005ZM2381.9 395.005H2373.02V386.106H2381.9V395.005ZM2364.15 395.005H2355.26V386.106H2364.15V395.005ZM2346.39 395.005H2337.51V386.106H2346.39V395.005ZM2328.62 395.005H2319.75V386.106H2328.62V395.005ZM2310.88 395.005H2302V386.106H2310.88V395.005ZM2293.11 395.005H2284.24V386.106H2293.11V395.005ZM2275.36 395.005H2266.49V386.106H2275.36V395.005ZM2257.6 395.005H2248.73V386.106H2257.6V395.005ZM2239.85 395.005H2230.98V386.106H2239.85V395.005ZM2222.09 395.005H2213.21V386.106H2222.09V395.005ZM2204.34 395.005H2195.46V386.106H2204.34V395.005ZM2186.58 395.005H2177.71V386.106H2186.58V395.005ZM2168.83 395.005H2159.95V386.106H2168.83V395.005ZM2151.07 395.005H2142.19V386.106H2151.07V395.005ZM2133.32 395.005H2124.44V386.106H2133.32V395.005ZM2115.56 395.005H2106.68V386.106H2115.56V395.005ZM2097.81 395.005H2088.93V386.106H2097.81V395.005ZM2080.04 395.005H2071.17V386.106H2080.04V395.005ZM2062.29 395.005H2053.42V386.106H2062.29V395.005ZM2044.53 395.005H2035.66V386.106H2044.53V395.005ZM2026.78 395.005H2017.91V386.106H2026.78V395.005ZM2009.02 395.005H2000.14V386.106H2009.02V395.005Z" fill="#5A75D1"/>
<path d="M4042.19 390H1981.51C1977.83 390 1974.84 381.389 1974.84 370.771C1974.84 360.149 1977.83 351.54 1981.51 351.54H4042.19C4045.87 351.54 4048.86 360.149 4048.86 370.771C4048.86 381.389 4045.87 390 4042.19 390Z" fill="#5A75D1"/>
<path d="M1100.05 516.331L1090.74 514.392C1090.78 514.055 1095.14 479.618 1085.82 443.014C1073.49 394.626 1044.08 365.279 998.383 355.793C956.421 347.079 919.462 363.503 888.531 404.611C865.145 435.684 854.17 469.95 854.047 470.294L845.285 465.955C845.736 464.485 856.917 429.519 881.451 396.794C914.241 353.063 955.218 334.856 999.927 344.142C1061.71 356.974 1085.68 403.266 1094.91 439.844C1104.82 479.106 1100.24 514.829 1100.05 516.331Z" fill="#133C9A"/>
<path d="M697.627 1415.79L691.9 1409.95C742.308 1332.34 762.824 1267.62 754.65 1212.07C743.511 1136.46 680.009 1090.62 623.983 1050.17C592.546 1027.47 562.845 1006.02 546.06 981.696C533.472 963.446 528.264 943.671 530.561 922.94C535.768 875.894 577.661 840.856 579.438 839.388L583.498 847.114C583.101 847.453 542.616 881.362 537.873 924.233C535.891 942.203 540.525 959.506 551.664 975.647C567.615 998.786 596.797 1019.85 627.673 1042.15C685.093 1083.6 750.154 1130.58 761.908 1210.4C770.519 1268.77 749.484 1335.95 697.627 1415.79Z" fill="#133C9A"/>
<path d="M870.147 1669.3L845.243 1649.35C886.166 1569.21 886.152 1496.49 845.202 1439.06C777.148 1343.6 638.95 1419.05 637.555 1419.83L625.5 1386.01C627.099 1385.13 665.179 1364.03 713.441 1356.36C779.527 1345.86 832.71 1365.93 867.263 1414.39C917.261 1484.52 918.286 1575.04 870.147 1669.3Z" fill="#133C9A"/>
<path d="M256.858 899.311C255.934 896.911 234.165 839.809 229.247 768.673C222.534 671.538 250.567 595.731 310.31 549.448C353.944 515.641 401.981 505.85 449.224 521.135C503.703 538.763 547.14 587.276 559.332 614.514L533.554 632.626C525.408 614.467 489.041 572.263 441.828 556.987C402.024 544.108 363.005 552.166 325.866 580.939C275.536 619.927 252.943 682.016 258.707 765.477C263.162 829.902 283.287 882.673 283.485 883.198L256.858 899.311Z" fill="#133C9A"/>
<path d="M576.405 585.54L505.139 637.07L516.429 661.569L587.708 610.042L576.405 585.54Z" fill="#133C9A"/>
<path d="M1119.26 520.996H1070.62V803.312H1119.26V520.996Z" fill="#4A3F78"/>
<path d="M1124.42 717.178L1067.39 717.132C1057.26 727.493 1050.8 743.261 1050.81 760.916L1050.89 812.572L1141.02 812.444L1140.94 760.784C1140.93 743.204 1134.5 727.515 1124.42 717.178Z" fill="#759ACE"/>
<path d="M1149.53 812.384H1043V828.571H1149.53V812.384Z" fill="#4A3F78"/>
<path d="M1020.92 1106.79L1002.67 1110.13L950.885 942.407L1000.66 933.289L1020.92 1106.79Z" fill="#4A3F78"/>
<path d="M1210.66 1105.55L1229.09 1104.67L1255.6 927.933L1205.33 930.326L1210.66 1105.55Z" fill="#4A3F78"/>
<path d="M1153.24 889.292L1046.02 889.201C1032.95 889.194 1022.26 875.797 1022.27 859.436C1022.29 843.074 1032.98 829.7 1046.04 829.707L1153.28 829.797C1166.35 829.804 1177.02 843.202 1177.01 859.563C1177.01 875.925 1166.31 889.299 1153.24 889.292Z" fill="#759ACE"/>
<path d="M1058.32 839.381C1050.9 829.166 1038.32 828.218 1029.96 837.237L959.825 913.001C943.615 930.169 943.861 961.581 960.372 978.326C976.049 994.258 999.326 989.564 1010.22 968.261L1060.41 870.328C1065.38 860.609 1064.54 847.919 1058.32 839.381Z" fill="#759ACE"/>
<path d="M972.768 934.094C967.164 942.933 970.13 955.902 978.618 959.708C983.757 962.009 989.675 959.896 993.065 954.541C998.669 945.693 995.717 932.726 987.229 928.918C982.076 926.617 976.171 928.732 972.768 934.094Z" fill="#4A3F78"/>
<path d="M1034.18 850.823C1029.87 857.615 1032.14 867.583 1038.66 870.501C1042.63 872.269 1047.16 870.652 1049.77 866.53C1054.08 859.736 1051.81 849.77 1045.28 846.85C1041.33 845.083 1036.79 846.708 1034.18 850.823Z" fill="#4A3F78"/>
<path d="M1137.78 840.63C1144.08 829.272 1156.44 826.254 1165.68 833.822L1243.17 897.326C1261.06 911.671 1264.12 942.851 1249.53 962.176C1235.66 980.561 1212.1 979.747 1199.06 960.437L1138.99 871.652C1133.03 862.842 1132.54 850.116 1137.78 840.63Z" fill="#759ACE"/>
<path d="M1145.96 854.711C1144.65 863.226 1150.35 870.749 1157.21 869.561C1161.36 868.838 1164.79 864.769 1165.59 859.609C1166.9 851.094 1161.2 843.57 1154.34 844.759C1150.18 845.482 1146.75 849.551 1145.96 854.711Z" fill="#4A3F78"/>
<path d="M1210.66 929.062C1208.95 940.15 1216.38 949.937 1225.3 948.387C1230.71 947.454 1235.17 942.15 1236.21 935.433C1237.9 924.346 1230.49 914.567 1221.57 916.108C1216.16 917.048 1211.7 922.345 1210.66 929.062Z" fill="#4A3F78"/>
<path d="M1104.22 506.121H924.93V578.359H1104.22V506.121Z" fill="#133C9A"/>
<path d="M946.743 621.309H830.604C795.723 621.309 767.457 585.91 767.457 542.241C767.457 498.573 795.723 463.172 830.604 463.172H946.743V621.309Z" fill="#759ACE"/>
<path d="M1097.19 621.309H1015.34V463.17H1097.19C1132.07 463.17 1160.34 498.573 1160.34 542.241C1160.34 585.909 1132.07 621.309 1097.19 621.309Z" fill="#759ACE"/>
<path d="M1112.09 579.984C1095.17 588.865 1075.63 578.852 1068.54 557.662C1061.45 536.471 1069.44 512.007 1086.36 503.122C1103.29 494.24 1122.82 504.254 1129.91 525.444C1137 546.634 1129.01 571.099 1112.09 579.984ZM1091.78 519.303C1081.98 524.444 1077.34 538.611 1081.46 550.881C1085.56 563.151 1096.87 568.948 1106.67 563.803C1116.48 558.662 1121.11 544.495 1116.99 532.224C1112.89 519.955 1101.58 514.158 1091.78 519.303Z" fill="#133C9A"/>
<path d="M598.602 874.036L498.498 679.995L466.156 706.162L566.263 900.199L598.602 874.036Z" fill="#133C9A"/>
<path d="M280.764 993.167C265.742 963.928 272.497 924.971 295.851 906.165L554.548 697.589L608.948 803.492L350.245 1012.06C326.891 1030.87 295.785 1022.41 280.764 993.167Z" fill="#133C9A"/>
<path d="M586.614 903.863L866.498 644.318C902.459 610.965 911.493 548.324 887.123 501.322C862.739 454.319 813.369 439.175 774.415 466.754L471.816 681.335L586.614 903.863Z" fill="#759ACE"/>
<path d="M845.381 616.406C820.245 636.839 786.526 627.867 770.206 596.396C753.886 564.928 761.049 522.704 786.184 502.267C811.32 481.834 845.04 490.806 861.359 522.277C877.666 553.745 870.503 595.969 845.381 616.406ZM798.65 526.292C784.093 538.124 779.952 562.573 789.396 580.796C798.841 599.014 818.359 604.21 832.916 592.381C847.473 580.549 851.614 556.1 842.169 537.877C832.725 519.655 813.193 514.459 798.65 526.292Z" fill="#133C9A"/>
<path d="M695.496 1536.63C627.401 1610.58 524.329 1601.39 465.273 1516.12L197.248 1129.06C138.202 1043.78 145.532 914.717 213.627 840.765C281.721 766.823 384.794 776.008 443.847 861.279L711.871 1248.34C770.917 1333.61 763.591 1462.68 695.496 1536.63Z" fill="#759ACE"/>
<path d="M257.966 904.803C222.112 943.738 218.258 1011.69 249.351 1056.59C280.438 1101.48 334.701 1106.33 370.555 1067.4C406.41 1028.45 410.264 960.497 379.176 915.605C348.089 870.712 293.821 865.867 257.966 904.803ZM347.921 1034.71C326.488 1057.99 294.037 1055.1 275.444 1028.25C256.85 1001.4 259.161 960.761 280.594 937.487C302.034 914.199 334.484 917.095 353.078 943.941C371.672 970.795 369.366 1011.43 347.921 1034.71Z" fill="#133C9A"/>
<path d="M754.323 1574.07H457.762V1414.76C457.762 1312.2 524.151 1229.07 606.037 1229.07C687.937 1229.07 754.323 1312.2 754.323 1414.76V1574.07Z" fill="#133C9A"/>
<path d="M563.516 1348.24C535.373 1378.8 532.353 1432.14 556.75 1467.37C581.148 1502.62 623.738 1506.41 651.881 1475.85C680.024 1445.3 683.058 1391.96 658.646 1356.71C634.249 1321.48 591.659 1317.67 563.516 1348.24ZM634.112 1450.2C617.3 1468.48 591.823 1466.21 577.225 1445.13C562.628 1424.05 564.445 1392.16 581.271 1373.89C598.096 1355.62 623.574 1357.89 638.172 1378.96C652.756 1400.03 650.951 1431.93 634.112 1450.2Z" fill="#759ACE"/>
<path d="M803.201 1555.34H424.051V1694.85H803.201V1555.34Z" fill="#133C9A"/>
<path d="M932.42 1749.94H258.606C258.252 1753.81 258.066 1757.74 258.066 1761.74V2166.76H932.967V1761.74C932.967 1757.74 932.776 1753.81 932.42 1749.94Z" fill="#759ACE"/>
<path d="M786.963 1622.49H407.079C325.794 1650.14 266.315 1697.76 260.113 1765.33H933.937C927.732 1697.76 868.248 1650.14 786.963 1622.49Z" fill="#759ACE"/>
<path d="M532.79 1867.07C522.758 1867.07 514.625 1856.89 514.625 1844.34C514.625 1831.79 522.758 1821.61 532.79 1821.61C542.809 1821.61 550.941 1831.79 550.941 1844.34C550.941 1856.89 542.809 1867.07 532.79 1867.07Z" fill="#133C9A"/>
<path d="M594.31 1867.07C584.291 1867.07 576.158 1856.89 576.158 1844.34C576.158 1831.79 584.291 1821.61 594.31 1821.61C604.342 1821.61 612.461 1831.79 612.461 1844.34C612.461 1856.89 604.342 1867.07 594.31 1867.07Z" fill="#133C9A"/>
<path d="M655.845 1867.07C645.812 1867.07 637.693 1856.89 637.693 1844.34C637.693 1831.79 645.812 1821.61 655.845 1821.61C665.877 1821.61 673.996 1831.79 673.996 1844.34C673.996 1856.89 665.877 1867.07 655.845 1867.07Z" fill="#133C9A"/>
<path d="M717.378 1867.07C707.345 1867.07 699.213 1856.89 699.213 1844.34C699.213 1831.79 707.345 1821.61 717.378 1821.61C727.397 1821.61 735.529 1831.79 735.529 1844.34C735.529 1856.89 727.397 1867.07 717.378 1867.07Z" fill="#133C9A"/>
<path d="M444.223 2023.89H335.381V1898.72H444.223V2023.89ZM337.062 2021.78H442.542V1900.82H337.062V2021.78Z" fill="#133C9A"/>
<path d="M368.569 1695.65C379.64 1675.7 396.222 1661.65 412.679 1649.29H404.688C388.225 1661.65 371.643 1675.7 360.561 1695.65H368.569Z" fill="#133C9A"/>
<path d="M387.594 1695.65C398.635 1675.7 415.218 1661.65 431.656 1649.29H423.665C407.22 1661.65 390.638 1675.7 379.586 1695.65H387.594Z" fill="#133C9A"/>
<path d="M406.616 1695.65C417.634 1675.7 434.216 1661.65 450.635 1649.29H442.645C426.219 1661.65 409.636 1675.7 398.607 1695.65H406.616Z" fill="#133C9A"/>
<path d="M425.64 1695.65C436.627 1675.7 453.216 1661.65 469.611 1649.29H461.62C445.218 1661.65 428.629 1675.7 417.625 1695.65H425.64Z" fill="#133C9A"/>
<path d="M444.659 1695.65C455.622 1675.7 472.21 1661.65 488.583 1649.29H480.591C464.214 1661.65 447.625 1675.7 436.65 1695.65H444.659Z" fill="#133C9A"/>
<path d="M463.686 1695.65C474.619 1675.7 491.207 1661.66 507.558 1649.29H499.57C483.211 1661.65 466.622 1675.7 455.678 1695.65H463.686Z" fill="#133C9A"/>
<path d="M482.705 1695.65C493.614 1675.7 510.209 1661.66 526.542 1649.29H518.546C502.213 1661.66 485.618 1675.7 474.697 1695.65H482.705Z" fill="#133C9A"/>
<path d="M3583.79 1596.61H-78.049L-972.547 2007.02H4478.33L3583.79 1596.61Z" fill="url(#paint1_linear_496_1832)"/>
<path d="M3513.56 1564.4H-7.9153L-105.68 1609.25H3611.31L3513.56 1564.4Z" fill="#396DBA"/>
<path d="M3489.94 1553.56H15.6923L-79.3945 1597.19H3585.03L3489.94 1553.56Z" fill="url(#paint2_linear_496_1832)"/>
<path d="M-818.661 2019.66L-819.828 2016.63L29.388 1600.1L30.5525 1603.14L-818.661 2019.66Z" fill="#396DBA"/>
<path d="M-632.064 2019.64L-633.307 2016.65L154.307 1600.12L155.55 1603.13L-632.064 2019.64Z" fill="#396DBA"/>
<path d="M-445.462 2019.63L-446.791 2016.66L279.234 1600.15L280.555 1603.11L-445.462 2019.63Z" fill="#396DBA"/>
<path d="M-258.86 2019.59L-260.283 2016.7L404.146 1600.17L405.569 1603.08L-258.86 2019.59Z" fill="#396DBA"/>
<path d="M-72.2446 2019.56L-73.7754 2016.73L529.058 1600.21L530.589 1603.04L-72.2446 2019.56Z" fill="#396DBA"/>
<path d="M114.378 2019.51L112.727 2016.77L653.958 1600.26L655.612 1602.99L114.378 2019.51Z" fill="#396DBA"/>
<path d="M301.002 2019.46L299.213 2016.83L778.857 1600.31L780.634 1602.94L301.002 2019.46Z" fill="#396DBA"/>
<path d="M487.635 2019.39L485.697 2016.9L903.744 1600.38L905.671 1602.87L487.635 2019.39Z" fill="#396DBA"/>
<path d="M674.283 2019.3L672.164 2016.99L1028.62 1600.47L1030.74 1602.78L674.283 2019.3Z" fill="#396DBA"/>
<path d="M860.935 2019.18L858.639 2017.11L1153.49 1600.59L1155.78 1602.66L860.935 2019.18Z" fill="#396DBA"/>
<path d="M1047.59 2019.03L1045.1 2017.26L1278.36 1600.74L1280.83 1602.51L1047.59 2019.03Z" fill="#396DBA"/>
<path d="M1234.23 2018.84L1231.56 2017.45L1403.23 1600.93L1405.88 1602.32L1234.23 2018.84Z" fill="#396DBA"/>
<path d="M1420.87 2018.62L1418.05 2017.67L1528.12 1601.15L1530.94 1602.1L1420.87 2018.62Z" fill="#396DBA"/>
<path d="M1607.48 2018.36L1604.57 2017.93L1653.03 1601.41L1655.95 1601.84L1607.48 2018.36Z" fill="#396DBA"/>
<path d="M1791.11 2018.21L1777.99 1601.69L1780.91 1601.57L1794.03 2018.09L1791.11 2018.21Z" fill="#396DBA"/>
<path d="M1977.69 2018.48L1902.98 1601.96L1905.85 1601.29L1980.57 2017.81L1977.69 2018.48Z" fill="#396DBA"/>
<path d="M2164.32 2018.72L2027.99 1602.2L2030.75 1601.05L2167.07 2017.57L2164.32 2018.72Z" fill="#396DBA"/>
<path d="M2350.96 2018.94L2153.04 1602.42L2155.64 1600.84L2353.54 2017.37L2350.96 2018.94Z" fill="#396DBA"/>
<path d="M2537.6 2019.1L2278.11 1602.58L2280.51 1600.67L2540.02 2017.19L2537.6 2019.1Z" fill="#396DBA"/>
<path d="M2724.26 2019.23L2403.16 1602.72L2405.37 1600.53L2726.48 2017.06L2724.26 2019.23Z" fill="#396DBA"/>
<path d="M2910.92 2019.34L2528.22 1602.82L2530.23 1600.43L2912.95 2016.95L2910.92 2019.34Z" fill="#396DBA"/>
<path d="M3097.56 2019.42L2653.26 1602.9L2655.13 1600.35L3099.43 2016.87L3097.56 2019.42Z" fill="#396DBA"/>
<path d="M3284.2 2019.49L2778.29 1602.97L2780.02 1600.29L3285.9 2016.8L3284.2 2019.49Z" fill="#396DBA"/>
<path d="M3470.82 2019.54L2903.33 1603.02L2904.92 1600.23L3472.41 2016.75L3470.82 2019.54Z" fill="#396DBA"/>
<path d="M3657.43 2019.58L3028.34 1603.05L3029.83 1600.2L3658.92 2016.72L3657.43 2019.58Z" fill="#396DBA"/>
<path d="M3844.02 2019.61L3153.35 1603.09L3154.74 1600.17L3845.41 2016.68L3844.02 2019.61Z" fill="#396DBA"/>
<path d="M4030.64 2019.63L3278.37 1603.11L3279.66 1600.14L4031.93 2016.65L4030.64 2019.63Z" fill="#396DBA"/>
<path d="M4217.23 2019.66L3403.35 1603.14L3404.57 1600.11L4218.46 2016.63L4217.23 2019.66Z" fill="#396DBA"/>
<path d="M1638.94 1101.43L1602.56 1102.04L1604.03 1238.58L1640.4 1237.97L1638.94 1101.43Z" fill="#133C9A"/>
<path d="M1646.47 1203.07L1599.89 1204.49L1576.4 1225.84L1670.76 1222.97L1646.47 1203.07Z" fill="#759ACE"/>
<path d="M1551.9 1464.7C1553.78 1464.7 1555.62 1463.67 1556.88 1461.69C1559.02 1458.26 1558.56 1453.29 1555.81 1450.59L1537.71 1432.74L1583.68 1287.77L1659.31 1285.07L1717.86 1428.39L1704.08 1441.63C1701.31 1444.29 1700.79 1449.25 1702.91 1452.71C1705.03 1456.17 1708.99 1456.83 1711.77 1454.17L1729.71 1436.92C1732.13 1434.6 1732.88 1430.45 1731.49 1427.05L1668.72 1273.43C1667.62 1270.72 1665.36 1269.03 1662.93 1269.13L1579.17 1272.12C1576.66 1272.21 1574.41 1274.17 1573.48 1277.1L1524.24 1432.38C1523.21 1435.63 1524.01 1439.35 1526.21 1441.51L1548.01 1463.01C1549.17 1464.15 1550.55 1464.7 1551.9 1464.7Z" fill="#133C9A"/>
<path d="M1565.27 1224.95L1566.88 1295.59L1676.69 1291.67L1675.08 1221.02L1565.27 1224.95Z" fill="#133C9A"/>
<path d="M1633.27 1464.22C1633.94 1464.22 1634.61 1464.08 1635.27 1463.81C1638.57 1462.42 1640.36 1457.95 1639.26 1453.81L1631.16 1423.38L1627 1269.09C1626.87 1264.72 1623.99 1261.31 1620.48 1261.45C1616.99 1261.6 1614.27 1265.25 1614.38 1269.62L1618.58 1425.06C1618.6 1425.82 1618.7 1426.57 1618.9 1427.3L1627.28 1458.81C1628.17 1462.12 1630.63 1464.22 1633.27 1464.22Z" fill="#133C9A"/>
<path d="M1472.5 285.005H1822.78C1835.35 285.005 1845.54 272.244 1845.54 256.505V136.734H1449.75V256.505C1449.75 272.244 1459.94 285.005 1472.5 285.005Z" fill="#5D519C"/>
<path d="M1623.35 1116.91C1656.36 1093.03 1676.79 1045.76 1673.04 1001.95C1669.55 961.016 1646.57 930.002 1608.33 914.627C1562.82 896.326 1560.28 849.424 1561.29 830.106C1563.4 790.347 1583.89 753.749 1606.99 748.519L1605.85 740.742C1579.65 746.676 1557.32 785.699 1555.01 829.587C1553.94 849.717 1557.43 868.53 1565.08 883.988C1573.91 901.839 1587.81 914.68 1606.4 922.148C1642.11 936.517 1663.56 965.154 1666.77 1002.78C1670.24 1043.59 1651.11 1087.71 1620.19 1110.06L1623.35 1116.91Z" fill="#133C9A"/>
<path d="M1574.51 662.729L1575.47 640.401C1567.74 639.879 1541.05 626.567 1520.85 596.714C1503.04 570.409 1495.56 539.58 1498.64 505.078C1501.56 472.072 1511.94 446.666 1529.49 429.558C1564.29 395.638 1616.51 404.2 1617.03 404.294L1619.51 382.148C1617.07 381.722 1559.46 372.11 1518.62 411.819C1497.07 432.775 1484.37 463.319 1480.88 502.61C1477.32 542.89 1486.42 580.429 1507.22 611.174C1529.97 644.779 1560.83 661.804 1574.51 662.729Z" fill="#133C9A"/>
<path d="M1549.58 346.736H1744.86C1774.79 346.736 1799.06 316.346 1799.06 278.857C1799.06 241.366 1774.79 210.975 1744.86 210.975H1549.58C1519.63 210.975 1495.37 241.366 1495.37 278.857C1495.37 316.346 1519.63 346.736 1549.58 346.736Z" fill="#759ACE"/>
<path d="M1677.88 425.475H1621.53V668.374H1677.88V425.475Z" fill="#133C9A"/>
<path d="M1465.19 861.024L1438.17 891.534L1546.91 1042.53L1573.92 1012.02L1465.19 861.024Z" fill="#133C9A"/>
<path d="M1706 269.944V439.389C1706 478.321 1680.79 509.883 1649.7 509.883C1618.62 509.883 1593.41 478.321 1593.41 439.389V269.944H1706Z" fill="#759ACE"/>
<path d="M1619.44 422.723C1612.25 443.562 1619.94 467.837 1636.59 476.833C1653.22 485.831 1672.62 476.194 1679.8 455.359C1686.98 434.516 1679.29 410.243 1662.64 401.247C1646.01 392.247 1626.63 401.884 1619.44 422.723Z" fill="#133C9A"/>
<path d="M1719.39 264.042C1713.49 281.696 1720.14 302.078 1734.24 309.48C1748.33 316.879 1764.61 308.536 1770.52 290.883C1776.43 273.229 1769.77 252.847 1755.67 245.446C1741.58 238.046 1725.3 246.387 1719.39 264.042Z" fill="#133C9A"/>
<path d="M1524.13 265.41C1518.06 282.984 1524.55 303.453 1538.59 311.042C1552.63 318.629 1568.96 310.504 1575.03 292.931C1581.08 275.355 1574.59 254.885 1560.57 247.299C1546.53 239.711 1530.18 247.835 1524.13 265.41Z" fill="#133C9A"/>
<path d="M1490.6 922.412L1677.79 707.947C1706.49 675.068 1708.46 619.283 1682.2 583.347C1655.96 547.413 1611.4 544.935 1582.71 577.812L1395.52 792.281C1366.84 825.163 1364.85 880.95 1391.11 916.884C1417.35 952.818 1461.91 955.293 1490.6 922.412Z" fill="#759ACE"/>
<path d="M1409.25 872.404C1415.75 895.904 1436.31 908.398 1455.08 900.26C1473.84 892.12 1483.82 866.386 1477.33 842.878C1470.82 819.38 1450.27 806.884 1431.5 815.025C1412.73 823.163 1402.76 848.903 1409.25 872.404Z" fill="#133C9A"/>
<path d="M1501.8 1019.15L1593.1 1146.95C1607.1 1166.53 1631.12 1168.2 1646.77 1150.68C1662.42 1133.15 1663.75 1103.06 1649.75 1083.47L1558.45 955.669C1544.44 936.08 1520.41 934.404 1504.78 951.938C1489.13 969.464 1487.8 999.553 1501.8 1019.15Z" fill="#759ACE"/>
<path d="M1616.95 1096.12C1608.8 1099.65 1604.47 1110.82 1607.29 1121.02C1610.1 1131.22 1619.01 1136.65 1627.17 1133.12C1635.32 1129.59 1639.65 1118.42 1636.84 1108.22C1634.01 1098.02 1625.1 1092.59 1616.95 1096.12Z" fill="#133C9A"/>
<path d="M1522.49 967.156C1514.34 970.684 1510.01 981.853 1512.83 992.054C1515.64 1002.25 1524.57 1007.68 1532.71 1004.15C1540.86 1000.62 1545.19 989.459 1542.38 979.259C1539.56 969.059 1530.64 963.628 1522.49 967.156Z" fill="#133C9A"/>
<path d="M1424.64 865.732C1428.21 878.602 1439.47 885.447 1449.75 880.994C1460.03 876.533 1465.49 862.43 1461.93 849.559C1458.37 836.681 1447.11 829.835 1436.83 834.297C1426.55 838.756 1421.09 852.853 1424.64 865.732Z" fill="#759ACE"/>
<path d="M1594.29 660.679C1600.78 684.177 1621.34 696.676 1640.1 688.536C1658.87 680.394 1668.85 654.655 1662.34 631.155C1655.85 607.654 1635.29 595.161 1616.53 603.298C1597.76 611.438 1587.78 637.178 1594.29 660.679Z" fill="#133C9A"/>
<path d="M1609.66 654.005C1613.23 666.878 1624.49 673.725 1634.77 669.264C1645.05 664.806 1650.52 650.704 1646.97 637.831C1643.4 624.955 1632.14 618.112 1621.86 622.568C1611.58 627.029 1606.11 641.129 1609.66 654.005Z" fill="#759ACE"/>
<path d="M2269.81 193.474H2259.81V183.887H2269.81V193.474ZM2249.83 193.474H2239.82V183.887H2249.83V193.474ZM2229.83 193.474H2219.84V183.887H2229.83V193.474ZM2209.85 193.474H2199.84V183.887H2209.85V193.474ZM2189.85 193.474H2179.86V183.887H2189.85V193.474ZM2169.85 193.474H2159.86V183.887H2169.85V193.474ZM2149.87 193.474H2139.88V183.887H2149.87V193.474ZM2129.88 193.474H2119.88V183.887H2129.88V193.474ZM2109.89 193.474H2099.9V183.887H2109.89V193.474ZM2089.9 193.474H2079.9V183.887H2089.9V193.474ZM2069.91 193.474H2059.92V183.887H2069.91V193.474ZM2049.93 193.474H2039.93V183.887H2049.93V193.474ZM2029.93 193.474H2019.94V183.887H2029.93V193.474ZM2009.94 193.474H1999.95V183.887H2009.94V193.474ZM1989.95 193.474H1979.96V183.887H1989.95V193.474ZM1969.96 193.474H1959.97V183.887H1969.96V193.474ZM1949.97 193.474H1939.98V183.887H1949.97V193.474ZM1929.98 193.474H1919.99V183.887H1929.98V193.474ZM1910 193.474H1900V183.887H1910V193.474ZM1890 193.474H1880.01V183.887H1890V193.474ZM1870.02 193.474H1860.01V183.887H1870.02V193.474ZM1850.02 193.474H1840.03V183.887H1850.02V193.474ZM1830.04 193.474H1820.03V183.887H1830.04V193.474ZM1810.05 193.474H1800.05V183.887H1810.05V193.474ZM1790.06 193.474H1780.05V183.887H1790.06V193.474ZM1770.07 193.474H1760.07V183.887H1770.07V193.474ZM1750.08 193.474H1740.07V183.887H1750.08V193.474ZM1730.08 193.474H1720.09V183.887H1730.08V193.474ZM1710.1 193.474H1700.09V183.887H1710.1V193.474ZM1690.1 193.474H1680.11V183.887H1690.1V193.474ZM1670.12 193.474H1660.13V183.887H1670.12V193.474ZM1650.12 193.474H1640.13V183.887H1650.12V193.474ZM1630.14 193.474H1620.15V183.887H1630.14V193.474ZM1610.14 193.474H1600.15V183.887H1610.14V193.474ZM1590.16 193.474H1580.15V183.887H1590.16V193.474ZM1570.16 193.474H1560.17V183.887H1570.16V193.474ZM1550.18 193.474H1540.19V183.887H1550.18V193.474ZM1530.18 193.474H1520.19V183.887H1530.18V193.474ZM1510.2 193.474H1500.2V183.887H1510.2V193.474ZM1490.2 193.474H1480.21V183.887H1490.2V193.474ZM1470.22 193.474H1460.22V183.887H1470.22V193.474ZM1450.22 193.474H1440.23V183.887H1450.22V193.474ZM1430.24 193.474H1420.24V183.887H1430.24V193.474ZM1410.25 193.474H1400.25V183.887H1410.25V193.474ZM1390.26 193.474H1380.26V183.887H1390.26V193.474ZM1370.27 193.474H1360.27V183.887H1370.27V193.474ZM1350.28 193.474H1340.28V183.887H1350.28V193.474ZM1330.29 193.474H1320.3V183.887H1330.29V193.474ZM1310.3 193.474H1300.3V183.887H1310.3V193.474ZM1290.31 193.474H1280.32V183.887H1290.31V193.474ZM1270.31 193.474H1260.32V183.887H1270.31V193.474ZM1250.33 193.474H1240.34V183.887H1250.33V193.474ZM1230.33 193.474H1220.34V183.887H1230.33V193.474ZM1210.35 193.474H1200.36V183.887H1210.35V193.474ZM1190.35 193.474H1180.37V183.887H1190.35V193.474ZM1170.37 193.474H1160.38V183.887H1170.37V193.474ZM1150.37 193.474H1140.39V183.887H1150.37V193.474ZM1130.39 193.474H1120.4V183.887H1130.39V193.474ZM1110.39 193.474H1100.4V183.887H1110.39V193.474ZM1090.41 193.474H1080.42V183.887H1090.41V193.474ZM1070.43 193.474H1060.44V183.887H1070.43V193.474ZM1050.43 193.474H1040.44V183.887H1050.43V193.474ZM1030.45 193.474H1020.44V183.887H1030.45V193.474ZM1010.45 193.474H1000.46V183.887H1010.45V193.474ZM990.468 193.474H980.463V183.887H990.468V193.474ZM970.472 193.474H960.48V183.887H970.472V193.474ZM950.489 193.474H940.484V183.887H950.489V193.474ZM930.492 193.474H920.501V183.887H930.492V193.474ZM910.509 193.474H900.504V183.887H910.509V193.474ZM890.513 193.474H880.521V183.887H890.513V193.474ZM870.53 193.474H860.525V183.887H870.53V193.474ZM850.533 193.474H840.542V183.887H850.533V193.474ZM830.537 193.474H820.545V183.887H830.537V193.474ZM810.554 193.474H800.562V183.887H810.554V193.474ZM790.557 193.474H780.566V183.887H790.557V193.474ZM770.574 193.474H760.583V183.887H770.574V193.474ZM750.578 193.474H740.586V183.887H750.578V193.474ZM730.595 193.474H720.604V183.887H730.595V193.474ZM710.598 193.474H700.607V183.887H710.598V193.474ZM690.616 193.474H680.624V183.887H690.616V193.474ZM670.619 193.474H660.628V183.887H670.619V193.474ZM650.636 193.474H640.645V183.887H650.636V193.474ZM630.64 193.474H620.648V183.887H630.64V193.474ZM610.657 193.474H600.665V183.887H610.657V193.474ZM590.674 193.474H580.669V183.887H590.674V193.474ZM570.677 193.474H560.672V183.887H570.677V193.474ZM550.694 193.474H540.689V183.887H550.694V193.474ZM530.698 193.474H520.693V183.887H530.698V193.474ZM510.715 193.474H500.713V183.887H510.715V193.474ZM490.717 193.474H480.72V183.887H490.717V193.474ZM470.73 193.474H460.734V183.887H470.73V193.474ZM450.738 193.474H440.742V183.887H450.738V193.474ZM430.745 193.474H420.75V183.887H430.745V193.474ZM410.758 193.474H400.763V183.887H410.758V193.474ZM390.766 193.474H380.77V183.887H390.766V193.474ZM370.78 193.474H360.783V183.887H370.78V193.474ZM350.788 193.474H340.798V183.887H350.788V193.474ZM330.801 193.474H320.805V183.887H330.801V193.474ZM310.808 193.474H300.813V183.887H310.808V193.474ZM290.816 193.474H280.826V183.887H290.816V193.474ZM270.829 193.474H260.833V183.887H270.829V193.474ZM250.836 193.474H240.846V183.887H250.836V193.474ZM230.851 193.474H220.854V183.887H230.851V193.474ZM210.858 193.474H200.861V183.887H210.858V193.474ZM190.871 193.474H180.876V183.887H190.871V193.474ZM170.879 193.474H160.882V183.887H170.879V193.474ZM150.892 193.474H140.896V183.887H150.892V193.474ZM130.899 193.474H120.904V183.887H130.899V193.474ZM110.914 193.474H100.917V183.887H110.914V193.474ZM90.9212 193.474H80.9243V183.887H90.9212V193.474ZM70.9288 193.474H60.9387V183.887H70.9288V193.474ZM50.9418 193.474H40.9462V183.887H50.9418V193.474ZM30.9494 193.474H20.9593V183.887H30.9494V193.474ZM10.9623 193.474H0.966797V183.887H10.9623V193.474Z" fill="#545EB5"/>
<path d="M2284.8 183.887H2279.8V193.474H2284.8V183.887Z" fill="#545EB5"/>
<path d="M2299.92 188.081H-20.0169C-24.1542 188.081 -27.5098 184.057 -27.5098 179.094C-27.5098 174.132 -24.1542 170.108 -20.0169 170.108H2299.92C2304.06 170.108 2307.41 174.133 2307.41 179.094C2307.41 184.057 2304.05 188.081 2299.92 188.081Z" fill="#545EB5"/>
<path d="M2304.02 183.887H2299.02V193.474H2304.02V183.887Z" fill="#545EB5"/>
<path d="M4582.86 193.474H4572.87V183.887H4582.86V193.474ZM4562.88 193.474H4552.86V183.887H4562.88V193.474ZM4542.87 193.474H4532.88V183.887H4542.87V193.474ZM4522.9 193.474H4512.91V183.887H4522.9V193.474ZM4502.92 193.474H4492.9V183.887H4502.92V193.474ZM4482.91 193.474H4472.92V183.887H4482.91V193.474ZM4462.93 193.474H4452.93V183.887H4462.93V193.474ZM4442.94 193.474H4432.95V183.887H4442.94V193.474ZM4422.93 193.474H4412.94V183.887H4422.93V193.474ZM4402.95 193.474H4392.96V183.887H4402.95V193.474ZM4382.97 193.474H4372.98V183.887H4382.97V193.474ZM4362.98 193.474H4352.97V183.887H4362.98V193.474ZM4342.97 193.474H4332.98V183.887H4342.97V193.474ZM4322.99 193.474H4313V183.887H4322.99V193.474ZM4303.01 193.474H4293V183.887H4303.01V193.474ZM4283.01 193.474H4273.01V183.887H4283.01V193.474ZM4263.03 193.474H4253.04V183.887H4263.03V193.474ZM4243.05 193.474H4233.05V183.887H4243.05V193.474ZM4223.04 193.474H4213.04V183.887H4223.04V193.474ZM4203.05 193.474H4193.06V183.887H4203.05V193.474ZM4183.07 193.474H4173.08V183.887H4183.07V193.474ZM4163.09 193.474H4153.07V183.887H4163.09V193.474ZM4143.08 193.474H4133.08V183.887H4143.08V193.474ZM4123.09 193.474H4113.1V183.887H4123.09V193.474ZM4103.11 193.474H4093.12V183.887H4103.11V193.474ZM4083.11 193.474H4073.12V183.887H4083.11V193.474ZM4063.13 193.474H4053.13V183.887H4063.13V193.474ZM4043.13 193.474H4033.16V183.887H4043.13V193.474ZM4023.17 193.474H4013.15V183.887H4023.17V193.474ZM4003.16 193.474H3993.16V183.887H4003.16V193.474ZM3983.17 193.474H3973.18V183.887H3983.17V193.474ZM3963.19 193.474H3953.17V183.887H3963.19V193.474ZM3943.18 193.474H3933.19V183.887H3943.18V193.474ZM3923.2 193.474H3913.2V183.887H3923.2V193.474ZM3903.21 193.474H3893.22V183.887H3903.21V193.474ZM3883.2 193.474H3873.21V183.887H3883.2V193.474ZM3863.22 193.474H3853.24V183.887H3863.22V193.474ZM3843.24 193.474H3833.25V183.887H3843.24V193.474ZM3823.25 193.474H3813.25V183.887H3823.25V193.474ZM3803.26 193.474H3793.27V183.887H3803.26V193.474ZM3783.28 193.474H3773.28V183.887H3783.28V193.474ZM3763.29 193.474H3753.27V183.887H3763.29V193.474ZM3743.28 193.474H3733.29V183.887H3743.28V193.474ZM3723.3 193.474H3713.31V183.887H3723.3V193.474ZM3703.32 193.474H3693.32V183.887H3703.32V193.474ZM3683.31 193.474H3673.31V183.887H3683.31V193.474ZM3663.32 193.474H3653.33V183.887H3663.32V193.474ZM3643.34 193.474H3633.35V183.887H3643.34V193.474ZM3623.36 193.474H3613.34V183.887H3623.36V193.474ZM3603.36 193.474H3593.37V183.887H3603.36V193.474ZM3583.38 193.474H3573.39V183.887H3583.38V193.474ZM3563.38 193.474H3553.4V183.887H3563.38V193.474ZM3543.38 193.474H3533.39V183.887H3543.38V193.474ZM3523.4 193.474H3513.41V183.887H3523.4V193.474ZM3503.42 193.474H3493.43V183.887H3503.42V193.474ZM3483.41 193.474H3473.42V183.887H3483.41V193.474ZM3463.43 193.474H3453.43V183.887H3463.43V193.474ZM3443.44 193.474H3433.45V183.887H3443.44V193.474ZM3423.46 193.474H3413.45V183.887H3423.46V193.474ZM3403.45 193.474H3393.46V183.887H3403.45V193.474ZM3383.47 193.474H3373.49V183.887H3383.47V193.474ZM3363.5 193.474H3353.51V183.887H3363.5V193.474ZM3343.49 193.474H3333.5V183.887H3343.49V193.474ZM3323.5 193.474H3313.51V183.887H3323.5V193.474ZM3303.52 193.474H3293.53V183.887H3303.52V193.474ZM3283.54 193.474H3273.52V183.887H3283.54V193.474ZM3263.53 193.474H3253.54V183.887H3263.53V193.474ZM3243.55 193.474H3233.55V183.887H3243.55V193.474ZM3223.56 193.474H3213.54V183.887H3223.56V193.474ZM3203.55 193.474H3193.58V183.887H3203.55V193.474ZM3183.57 193.474H3173.58V183.887H3183.57V193.474ZM3163.59 193.474H3153.6V183.887H3163.59V193.474ZM3143.59 193.474H3133.59V183.887H3143.59V193.474ZM3123.61 193.474H3113.62V183.887H3123.61V193.474ZM3103.62 193.474H3093.63V183.887H3103.62V193.474ZM3083.64 193.474H3073.62V183.887H3083.64V193.474ZM3063.63 193.474H3053.64V183.887H3063.63V193.474ZM3043.65 193.474H3033.66V183.887H3043.65V193.474ZM3023.67 193.474H3013.65V183.887H3023.67V193.474ZM3003.66 193.474H2993.66V183.887H3003.66V193.474ZM2983.67 193.474H2973.68V183.887H2983.67V193.474ZM2963.69 193.474H2953.7V183.887H2963.69V193.474ZM2943.69 193.474H2933.7V183.887H2943.69V193.474ZM2923.71 193.474H2913.71V183.887H2923.71V193.474ZM2903.71 193.474H2893.72V183.887H2903.71V193.474ZM2883.74 193.474H2873.73V183.887H2883.74V193.474ZM2863.73 193.474H2853.74V183.887H2863.73V193.474ZM2843.75 193.474H2833.76V183.887H2843.75V193.474ZM2823.77 193.474H2813.78V183.887H2823.77V193.474ZM2803.76 193.474H2793.77V183.887H2803.76V193.474ZM2783.78 193.474H2773.78V183.887H2783.78V193.474ZM2763.79 193.474H2753.8V183.887H2763.79V193.474ZM2743.78 193.474H2733.79V183.887H2743.78V193.474ZM2723.8 193.474H2713.81V183.887H2723.8V193.474ZM2703.83 193.474H2693.83V183.887H2703.83V193.474ZM2683.83 193.474H2673.83V183.887H2683.83V193.474ZM2663.84 193.474H2653.85V183.887H2663.84V193.474ZM2643.84 193.474H2633.86V183.887H2643.84V193.474ZM2623.87 193.474H2613.88V183.887H2623.87V193.474ZM2603.86 193.474H2593.87V183.887H2603.86V193.474ZM2583.88 193.474H2573.89V183.887H2583.88V193.474ZM2563.9 193.474H2553.9V183.887H2563.9V193.474ZM2543.91 193.474H2533.89V183.887H2543.91V193.474ZM2523.9 193.474H2513.91V183.887H2523.9V193.474ZM2503.92 193.474H2493.93V183.887H2503.92V193.474ZM2483.94 193.474H2473.92V183.887H2483.94V193.474ZM2463.93 193.474H2453.95V183.887H2463.93V193.474ZM2443.96 193.474H2433.97V183.887H2443.96V193.474ZM2423.96 193.474H2413.97V183.887H2423.96V193.474ZM2403.98 193.474H2393.97V183.887H2403.98V193.474ZM2383.98 193.474H2373.99V183.887H2383.98V193.474ZM2364 193.474H2353.99V183.887H2364V193.474ZM2344 193.474H2334.01V183.887H2344V193.474ZM2324.02 193.474H2314.01V183.887H2324.02V193.474Z" fill="#545EB5"/>
<path d="M4612.96 188.081H2293.03C2288.89 188.081 2285.54 184.057 2285.54 179.094C2285.54 174.132 2288.89 170.108 2293.03 170.108H4612.96C4617.1 170.108 4620.47 174.133 4620.47 179.094C4620.47 184.057 4617.1 188.081 4612.96 188.081Z" fill="#545EB5"/>
<path d="M3508.52 100.515H-19.7598V172.822H3508.52V100.515Z" fill="#616DD1"/>
<path d="M3524.09 101.147H-4.19141V117.94H3524.09V101.147Z" fill="#545EB5"/>
<path d="M1540.12 194.786H1453.21V193.648C1453.21 163.592 1472.67 139.227 1496.67 139.227C1520.67 139.227 1540.12 163.592 1540.12 193.648V194.786Z" fill="#5D519C"/>
<path d="M1843.19 197.403H1756.27V196.264C1756.27 166.209 1775.72 141.844 1799.72 141.844C1823.72 141.844 1843.19 166.209 1843.19 196.264V197.403Z" fill="#5D519C"/>
<path d="M1550.33 1558.84H1207.19V1888.03H1550.33V1558.84Z" fill="#FDB477"/>
<path d="M1407.32 1558.84H1370.27V1625.26H1407.32V1558.84Z" fill="white"/>
<path d="M1308.99 1826.96H1273.32V1864.22H1308.99V1826.96Z" fill="#E68D45"/>
<path d="M1259.53 1826.96H1223.85V1864.22H1259.53V1826.96Z" fill="#E68D45"/>
<path d="M1358.8 1826.96H1323.12V1864.22H1358.8V1826.96Z" fill="#E68D45"/>
<path d="M1514.53 1461.81H1243.26L1207.36 1558.91H1550.44L1514.53 1461.81Z" fill="#FFCBA1"/>
<path d="M1550.33 1558.84H1207.19V1888.03H1550.33V1558.84Z" fill="#FF8800"/>
<path d="M1407.32 1558.84H1370.27V1625.26H1407.32V1558.84Z" fill="white"/>
<path d="M1370.27 1558.35H1407.32L1400.01 1461.12H1377.56L1370.27 1558.35Z" fill="white"/>
<path d="M1308.99 1826.96H1273.32V1864.22H1308.99V1826.96Z" fill="#133C9A"/>
<path d="M1259.53 1826.96H1223.85V1864.22H1259.53V1826.96Z" fill="#133C9A"/>
<path d="M1358.8 1826.96H1323.12V1864.22H1358.8V1826.96Z" fill="#133C9A"/>
<path d="M639.743 1538.53H326.887V1882.45H639.743V1538.53Z" fill="#FDB477"/>
<path d="M509.349 1538.53H475.559V1607.92H509.349V1538.53Z" fill="white"/>
<path d="M419.696 1818.65H387.162V1857.56H419.696V1818.65Z" fill="#E68D45"/>
<path d="M374.596 1818.65H342.068V1857.56H374.596V1818.65Z" fill="#E68D45"/>
<path d="M465.103 1818.65H432.574V1857.56H465.103V1818.65Z" fill="#E68D45"/>
<path d="M731.703 1467.15L466.582 1462.17L327.031 1538.6H639.839L731.703 1467.15Z" fill="#FFCBA1"/>
<path d="M639.743 1538.53H326.887V1882.45H639.743V1538.53Z" fill="#FF8800"/>
<path d="M509.349 1538.53H475.559V1607.92H509.349V1538.53Z" fill="white"/>
<path d="M475.559 1538.02H509.349L605.423 1463.79H584.962L475.559 1538.02Z" fill="white"/>
<path d="M419.696 1818.65H387.162V1857.56H419.696V1818.65Z" fill="#133C9A"/>
<path d="M374.596 1818.65H342.068V1857.56H374.596V1818.65Z" fill="#133C9A"/>
<path d="M465.103 1818.65H432.574V1857.56H465.103V1818.65Z" fill="#133C9A"/>
<path d="M731.702 1467.15V1792.52L639.742 1882.45V1538.53L731.702 1467.15Z" fill="#FDAE6D"/>
<path d="M1959.93 1804.04L2031.97 1978.71H2314.12L2330.24 1893.97L1959.93 1804.04Z" fill="#CFCFCF"/>
<path d="M2325.88 1550.06H2013.03V1893.97H2325.88V1550.06Z" fill="#FDB477"/>
<path d="M2177.21 1550.06H2143.43V1619.45H2177.21V1550.06Z" fill="white"/>
<path d="M2265.6 1830.16H2233.07V1869.1H2265.6V1830.16Z" fill="#E68D45"/>
<path d="M2310.69 1830.16H2278.18V1869.1H2310.69V1830.16Z" fill="#E68D45"/>
<path d="M2220.19 1830.16H2187.66V1869.1H2220.19V1830.16Z" fill="#E68D45"/>
<path d="M1964.3 1478.67L2229.42 1473.69L2325.74 1550.13H2012.93L1964.3 1478.67Z" fill="#FFCBA1"/>
<path d="M2325.88 1550.06H2013.03V1893.97H2325.88V1550.06Z" fill="#F7A159"/>
<path d="M2177.21 1550.06H2143.43V1619.45H2177.21V1550.06Z" fill="white"/>
<path d="M2177.21 1549.55H2143.43L2090.59 1475.32H2111.04L2177.21 1549.55Z" fill="white"/>
<path d="M2265.6 1830.16H2233.07V1869.1H2265.6V1830.16Z" fill="#E68D45"/>
<path d="M2310.69 1830.16H2278.18V1869.1H2310.69V1830.16Z" fill="#E68D45"/>
<path d="M2220.19 1830.16H2187.66V1869.1H2220.19V1830.16Z" fill="#E68D45"/>
<path d="M1964.3 1478.67L1961.76 1804.04L2013.04 1893.97V1550.06L1964.3 1478.67Z" fill="#FDAE6D"/>
<mask id="mask0_496_1832" style="mask-type:luminance" maskUnits="userSpaceOnUse" x="1904" y="680" width="1549" height="1320">
<path d="M3453 680H1904.32V2000H3453V680Z" fill="white"/>
</mask>
<g mask="url(#mask0_496_1832)">
<path d="M1991.08 1741.74C1990.92 1741.13 1987.19 1726.52 1987.93 1704.06C1988.62 1683.37 1993.42 1651.93 2012.44 1619.58C2034.57 1581.93 2065.09 1567.08 2086.8 1561.24C2110.31 1554.92 2128.33 1557.46 2129.09 1557.57L2128.58 1561.61C2128.41 1561.59 2110.4 1559.08 2087.56 1565.24C2066.57 1570.92 2037.07 1585.32 2015.65 1621.76C1997.12 1653.28 1992.42 1683.9 1991.73 1704.04C1990.98 1725.91 1994.68 1740.5 1994.72 1740.64L1991.08 1741.74Z" fill="#133C9A"/>
<path d="M2000.25 1755.29C2000.09 1754.68 1996.54 1740.08 1997.26 1717.65C1997.91 1696.97 2002.49 1665.55 2020.66 1633.22C2041.81 1595.57 2071 1580.71 2091.77 1574.87C2114.26 1568.55 2131.52 1571.09 2132.24 1571.2L2131.72 1575.15C2131.55 1575.13 2114.36 1572.61 2092.55 1578.78C2072.5 1584.45 2044.31 1598.86 2023.83 1635.29C2006.11 1666.82 2001.62 1697.47 2000.96 1717.62C2000.25 1739.51 2003.79 1754.11 2003.82 1754.26L2000.25 1755.29Z" fill="#133C9A"/>
<path d="M2007.47 1769.39C2007.32 1768.78 2003.98 1754.21 2004.66 1731.8C2005.27 1711.14 2009.6 1679.75 2026.75 1647.43C2046.73 1609.79 2074.33 1594.92 2093.96 1589.08C2115.24 1582.74 2131.57 1585.29 2132.26 1585.41L2131.71 1589.24C2131.55 1589.21 2115.33 1586.71 2094.75 1592.87C2075.83 1598.53 2049.21 1612.94 2029.88 1649.36C1997.8 1709.79 2010.82 1767.86 2010.96 1768.45L2007.47 1769.39Z" fill="#133C9A"/>
<path d="M2121.45 1552.85H2113.12V1563.45H2121.45V1552.85Z" fill="#133C9A"/>
<path d="M2114.53 1555.73H2111.25V1561.93H2114.53V1555.73Z" fill="#133C9A"/>
<path d="M2120.23 1566.79H2111.89V1577.39H2120.23V1566.79Z" fill="#133C9A"/>
<path d="M2113.29 1569.67H2110.02V1575.87H2113.29V1569.67Z" fill="#133C9A"/>
<path d="M2118.12 1581.89H2109.78V1592.49H2118.12V1581.89Z" fill="#133C9A"/>
<path d="M2111.2 1584.77H2107.91V1590.97H2111.2V1584.77Z" fill="#133C9A"/>
<path d="M3470.72 1644.96V2232.67H1926.03V1845.51C1926.03 1791.95 1945.38 1741.59 1980.51 1703.7C2015.62 1665.83 2062.33 1644.97 2112.02 1644.97L3470.72 1644.96Z" fill="#E6E0FF"/>
<path d="M3462.59 1678.25V2234.32H1952.57V1852.92C1952.57 1756.45 2025.09 1678.25 2114.55 1678.25H3462.59Z" fill="#473C80"/>
<path d="M2902.21 1482.39H2233.52C2220.71 1482.39 2210.31 1471.18 2210.31 1457.37V1016.72C2210.31 1002.91 2220.71 991.702 2233.52 991.702H2902.21C2915.04 991.702 2925.41 1002.91 2925.41 1016.72V1457.37C2925.41 1471.18 2915.04 1482.39 2902.21 1482.39Z" fill="#133C9A"/>
<path d="M2233.52 1463.62C2230.34 1463.62 2227.72 1460.81 2227.72 1457.37V1016.72C2227.72 1013.28 2230.34 1010.47 2233.52 1010.47H2902.21C2905.41 1010.47 2908.01 1013.28 2908.01 1016.72V1457.37C2908.01 1460.81 2905.41 1463.62 2902.21 1463.62H2233.52Z" fill="white"/>
<path d="M2472.28 1308.15H2289.93C2283.84 1308.15 2278.9 1302.82 2278.9 1296.25V1143.44C2278.9 1136.87 2283.84 1131.54 2289.93 1131.54H2472.28C2478.38 1131.54 2483.33 1136.87 2483.33 1143.44V1296.25C2483.33 1302.82 2478.38 1308.15 2472.28 1308.15Z" fill="#7AB1FF"/>
<path d="M2473.86 1270.63H2298.75V1140.44C2298.75 1139.88 2299.16 1139.43 2299.68 1139.43C2300.2 1139.43 2300.62 1139.88 2300.62 1140.44V1268.62H2473.86C2474.37 1268.62 2474.79 1269.06 2474.79 1269.62C2474.79 1270.18 2474.37 1270.63 2473.86 1270.63Z" fill="#FDFDFF"/>
<path d="M2335.51 1229.76H2316.17V1269.62H2335.51V1229.76Z" fill="#FDFDFF"/>
<path d="M2362.46 1220.67H2343.12V1269.62H2362.46V1220.67Z" fill="#FDFDFF"/>
<path d="M2389.4 1202.25H2370.07V1269.62H2389.4V1202.25Z" fill="#FDFDFF"/>
<path d="M2416.35 1189.39H2397.01V1269.62H2416.35V1189.39Z" fill="#FDFDFF"/>
<path d="M2443.3 1161.63H2423.96V1269.62H2443.3V1161.63Z" fill="#FDFDFF"/>
<path d="M2691.87 1308.15H2509.5C2503.42 1308.15 2498.46 1302.82 2498.46 1296.25V1143.44C2498.46 1136.87 2503.42 1131.54 2509.5 1131.54H2691.87C2697.97 1131.54 2702.91 1136.87 2702.91 1143.44V1296.25C2702.91 1302.82 2697.97 1308.15 2691.87 1308.15Z" fill="#7AB1FF"/>
<path d="M2693.41 1270.63H2518.31V1147.5C2518.31 1146.95 2518.74 1146.49 2519.23 1146.49C2519.76 1146.49 2520.18 1146.95 2520.18 1147.5V1268.62H2693.41C2693.93 1268.62 2694.36 1269.06 2694.36 1269.62C2694.36 1270.18 2693.93 1270.63 2693.41 1270.63Z" fill="#FDFDFF"/>
<path d="M2519.24 1269.62C2548.58 1266.86 2552.68 1139.68 2596.2 1196.7C2637.56 1250.87 2639.72 1150.28 2684.65 1150.28V1268.5L2519.24 1269.62Z" fill="#FDFDFF"/>
<path d="M2703.04 1099.55H2279.1V1060.6H2703.04V1099.55ZM2280.12 1098.46H2702.02V1061.7H2280.12V1098.46Z" fill="#7AB1FF"/>
<path d="M2452.59 1073.54H2382.21V1086.62H2452.59V1073.54Z" fill="#7AB1FF"/>
<path d="M2495.93 1073.54H2459.51V1086.62H2495.93V1073.54Z" fill="#7AB1FF"/>
<path d="M2372.85 1073.54H2286.89V1086.62H2372.85V1073.54Z" fill="#7AB1FF"/>
<path d="M2516.23 1346.95H2284.67V1361.11H2516.23V1346.95Z" fill="#7AB1FF"/>
<path d="M2487.18 1399.08H2284.67V1413.24H2487.18V1399.08Z" fill="#7AB1FF"/>
<path d="M2635.98 1372.69H2284.67V1386.85H2635.98V1372.69Z" fill="#7AB1FF"/>
<path d="M2861.08 1063.19H2748.26V1428.06H2861.08V1063.19Z" fill="#7AB1FF"/>
<path d="M2835.64 1091.53H2759.67V1101.94H2835.64V1091.53Z" fill="white"/>
<path d="M2811.92 1109.11H2759.67V1119.52H2811.92V1109.11Z" fill="white"/>
<path d="M2824.26 1128.41H2759.67V1138.82H2824.26V1128.41Z" fill="white"/>
<path d="M2814.3 1147.27H2759.67V1157.69H2814.3V1147.27Z" fill="white"/>
<path d="M2835.64 1193.64H2759.67V1204.06H2835.64V1193.64Z" fill="white"/>
<path d="M2811.92 1211.23H2759.67V1221.64H2811.92V1211.23Z" fill="white"/>
<path d="M2824.26 1230.52H2759.67V1240.94H2824.26V1230.52Z" fill="white"/>
<path d="M2814.3 1249.39H2759.67V1259.81H2814.3V1249.39Z" fill="white"/>
<path d="M2835.64 1315.84H2759.67V1326.26H2835.64V1315.84Z" fill="white"/>
<path d="M2811.92 1333.43H2759.67V1343.84H2811.92V1333.43Z" fill="white"/>
<path d="M2824.26 1352.72H2759.67V1363.13H2824.26V1352.72Z" fill="white"/>
<path d="M2814.3 1371.59H2759.67V1382H2814.3V1371.59Z" fill="white"/>
<path d="M2531.11 1479.18H2403.84V1643.86H2531.11V1479.18Z" fill="#133C9A"/>
<path d="M2727.68 1629.88H2330.87V1650.68H2727.68V1629.88Z" fill="#133C9A"/>
<path d="M2272.41 1649.27H2101.09L2123.46 1517.97H2294.77L2272.41 1649.27Z" fill="#133C9A"/>
<path d="M2307.59 1632.97H2091.24V1650.36H2307.59V1632.97Z" fill="#133C9A"/>
<path d="M3361.34 1583.01H2767.12V1647.28H3361.34V1583.01Z" fill="#133C9A"/>
<path d="M2858.17 1569.64H2822.18V1582.74H2858.17V1569.64Z" fill="#133C9A"/>
<path d="M2926.4 1569.64H2890.41V1582.74H2926.4V1569.64Z" fill="#133C9A"/>
<path d="M2994.62 1569.64H2958.62V1582.74H2994.62V1569.64Z" fill="#133C9A"/>
<path d="M3062.84 1569.64H3026.87V1582.74H3062.84V1569.64Z" fill="#133C9A"/>
<path d="M3131.07 1569.64H3095.1V1582.74H3131.07V1569.64Z" fill="#133C9A"/>
<path d="M3199.3 1569.64H3163.31V1582.74H3199.3V1569.64Z" fill="#133C9A"/>
<path d="M3267.53 1569.64H3231.54V1582.74H3267.53V1569.64Z" fill="#133C9A"/>
<path d="M3335.76 1569.64H3299.77V1582.74H3335.76V1569.64Z" fill="#133C9A"/>
<path d="M3251.19 1166.45C3251.19 1166.45 3334.94 1168.99 3372.27 1330.79C3409.62 1492.59 3431.49 1623.93 3352.85 1637.64C3274.21 1651.35 3183.61 1315.5 3176.7 1245.35C3169.78 1175.21 3216.74 1162.11 3251.19 1166.45Z" fill="#002E73"/>
<path d="M3050.82 1200.57C3113.87 1210.46 3153.07 1163.01 3162.29 1143.18L3157.89 1005.59L3085.61 998C3064.65 999.873 3043.69 1005.28 3025.66 1012.96L3009.39 1103.56L3005.79 1123.2C2997.61 1142.54 2987.76 1190.67 3050.82 1200.57Z" fill="#F7A594"/>
<path d="M2968.84 863.829C2965.63 891.397 2959.31 951.845 2963.69 978.926C2970.31 1020.16 3010.44 1062.46 3042.34 1065.22C3079.02 1065.42 3126.92 1048.64 3151.3 1021.23C3164.4 1000.99 3189.05 953.65 3198.74 913.448C3218.94 829.603 3159.5 764.143 3090.71 754.781C3021.92 745.42 2978.86 777.876 2968.84 863.829Z" fill="#F7A594"/>
<path d="M2970.04 891.232C2970.04 891.232 2945.44 923.5 2947.33 930.034C2949.22 936.57 2962.85 949.638 2969.67 948.004C2976.47 946.37 2971.18 896.133 2970.04 891.232Z" fill="#F7A594"/>
<path d="M2955.1 1158.73C2955.1 1158.73 2983.78 1101.32 3069.77 1098.01C3155.79 1094.7 3188.53 1123.4 3191.61 1163.14C3194.69 1202.88 2953.07 1239.31 2955.1 1158.73Z" fill="#002E73"/>
<path d="M3260.86 1719.77C3316.76 1812.45 3357.56 2260.29 3434.57 2934.58L3320.72 2941.06C3286.53 2761.44 3247.97 2670.39 3208.82 2411.49C3115.03 2182.98 3066.39 1966.49 3041.43 1743.62C3017.16 1575.6 3208.47 1487.38 3260.86 1719.77Z" fill="#231F20"/>
<path d="M3126.23 1751.69C3118.2 2079.62 3063.98 2358.16 3063.98 2358.16C3051.57 2632.79 3034.73 2623.6 3011.17 2943.68L2908.29 2942.2C2899.64 2805.05 2831 2165.77 2884.3 1755.43C2910.06 1570.58 3142.69 1509.4 3126.23 1751.69Z" fill="#231F20"/>
<path d="M2909.15 1706.09C2918.48 1761.75 3296.11 1744.87 3286.77 1689.21C3226.95 1203.32 3348.26 1252.79 3311.17 1203.95C3247.17 1119.74 2996.26 1125.03 2911.72 1161.45C2878.14 1175.91 2839.67 1234.64 2839.91 1328.14C2840.06 1376.21 2883.49 1432.11 2895.39 1470.94C2922.95 1560.82 2909.49 1693.17 2909.15 1706.09Z" fill="#002E73"/>
<path d="M3310.75 1854.16C3258.14 1913.62 2929.76 1905.54 2873.34 1854.16C2870.41 1814.44 2869.14 1777.02 2868.69 1740.93C2868.42 1722.52 2868.4 1704.45 2868.48 1686.61C2868.54 1666.66 2868.73 1647 2868.85 1627.44C2868.98 1609.11 2869.07 1590.89 2868.98 1572.59C2868.87 1554.12 2868.59 1535.58 2868 1516.83C2966.17 1402.4 2949.02 1234.5 2899.94 1165.8C2941.2 1143.97 2988.41 1142.23 2988.41 1142.23C3047.02 1137.54 3120.58 1131.74 3185.74 1144.09C3217.83 1150.18 3228.06 1152.16 3244.19 1162.24C3283.03 1205.04 3299.97 1382.32 3307.04 1546.73C3307.92 1567.49 3308.67 1588.05 3309.28 1608.09C3309.82 1626.52 3310.27 1644.54 3310.63 1661.89C3311.05 1683.36 3311.33 1703.85 3311.5 1722.88C3312.26 1802.76 3311.12 1857.3 3310.75 1854.16Z" fill="#FF8800"/>
<path d="M3309.27 1608.09C3261.94 1613.49 3019.86 1639.6 2868.84 1627.43C2868.96 1609.11 2869.06 1590.89 2868.96 1572.59C2944.42 1574.09 3177.33 1579.66 3307.03 1546.73C3307.92 1567.49 3308.66 1588.04 3309.27 1608.09Z" fill="#FDFDFF"/>
<path d="M3311.51 1722.87C3252.53 1729.47 3014.12 1754.24 2868.69 1740.93C2868.42 1722.52 2868.4 1704.45 2868.48 1686.61C2933.07 1687.76 3175.06 1694.97 3310.63 1661.89C3311.05 1683.36 3311.33 1703.84 3311.51 1722.87Z" fill="#FDFDFF"/>
<path d="M3101.74 1060.28C3101.74 1060.28 3040.83 1006.67 3012.25 951.71C2983.65 896.753 2952.58 768.072 3050.79 750.647C3148.97 733.222 3226.05 792.198 3221.09 869.945C3216.1 947.691 3165.15 1032.14 3101.74 1060.28Z" fill="#231F20"/>
<path d="M2998.37 890.508C2998.37 890.508 2985.83 893.785 2975.96 918.369C2975.96 918.369 2990.4 851.994 2979.12 824.137C2936.68 778.385 2996.1 703.267 3089.66 747.089C3209.67 757.32 3074.86 917.596 2998.37 890.508Z" fill="#231F20"/>
<path d="M3000.26 935.801C3010.21 935.801 3018.3 925.799 3018.3 913.456C3018.3 901.117 3010.21 891.111 3000.26 891.111C2990.28 891.111 2982.2 901.117 2982.2 913.456C2982.2 925.799 2990.28 935.801 3000.26 935.801Z" fill="#F7A594"/>
<path d="M2943.19 841.936C2943.19 841.936 3020.08 864.719 3043.81 915.876C3067.52 967.035 3113.43 1025.62 3185.36 1000.04C3257.31 974.461 3227.45 864.719 3196.08 823.463C3164.7 782.204 3066.01 741.577 2998.66 743.423C2908.36 745.898 2884.6 814.548 2943.19 841.936Z" fill="#FFC233"/>
<path d="M2949.69 764.052C2949.69 764.052 2907.2 824.357 3029.17 872.241C3074.08 889.861 3084.26 954.071 3122.88 969.417C3169.88 988.095 3205.14 972.253 3216.44 932.246C3238.16 854.183 3233.53 762.993 3164.65 711.012C3095.79 659.029 2976.33 692.104 2949.69 764.052Z" fill="#FFC233"/>
<path d="M3052.04 687.667C3052.04 687.667 3123.66 711.629 3144.63 782.846C3165.62 854.064 3128.59 978.528 3128.59 978.528C3128.59 978.528 3164.4 1008.48 3210.07 965.218C3210.07 965.218 3232.3 848.741 3194.63 753.56C3156.97 658.381 3052.04 687.667 3052.04 687.667Z" fill="#FFC233"/>
<path d="M2899.94 1165.8C2899.94 1165.8 2816.66 1175.72 2791.75 1340.28C2766.85 1504.84 2755.01 1637.67 2834.42 1644.38C2913.84 1651.1 2978.62 1308.37 2980.19 1237.86C2981.75 1167.33 2933.96 1158.43 2899.94 1165.8Z" fill="#002E73"/>
<path d="M2637.98 1565.28C2637.98 1565.28 2594.57 1559.43 2580.34 1556.5C2566.1 1553.58 2513.21 1597.44 2517.27 1631.8C2549.84 1631.8 2646.79 1631.8 2646.79 1631.8L2637.98 1565.28Z" fill="#F7A594"/>
<path d="M2844.67 1646.12C2773.34 1664.6 2710.84 1658.41 2637.9 1636.43C2614.95 1629.06 2611.82 1569.32 2637.9 1558.72C2637.9 1558.72 2798.11 1508.63 2843.57 1522.98C2889.02 1537.33 2914.53 1601.88 2844.67 1646.12Z" fill="#002E73"/>
<path d="M2949.97 793.071C2945.34 750.484 3014.97 691.03 3077.31 684.275C3001.3 689.552 2967.48 729.51 2955.79 750.823C2923.05 760.561 2915.14 784.096 2915.14 784.096C2915.14 784.096 2927.65 761.462 2939.78 769.364C2943.76 771.96 2943.14 787.667 2945.19 798.224C2949.74 821.722 2963.66 834.627 2971.33 840.11C2964.25 834.686 2952.19 821.416 2949.97 793.071Z" fill="#FFC233"/>
<path d="M2971.33 840.11C2974.35 842.445 2976.48 843.335 2976.48 843.335C2976.48 843.335 2974.42 842.325 2971.33 840.11Z" fill="white"/>
<path d="M2358.25 2152.89H2110.71C2082.46 2152.89 2059.48 2128.11 2059.48 2097.66V1830.74C2059.48 1800.29 2082.46 1775.51 2110.71 1775.51H2358.25C2386.49 1775.51 2409.47 1800.28 2409.47 1830.74V2097.66C2409.47 2128.11 2386.49 2152.89 2358.25 2152.89ZM2110.71 1776.33C2082.87 1776.33 2060.23 1800.74 2060.23 1830.74V2097.66C2060.23 2127.67 2082.87 2152.06 2110.71 2152.06H2358.25C2386.06 2152.06 2408.71 2127.67 2408.71 2097.66V1830.74C2408.71 1800.74 2386.06 1776.33 2358.25 1776.33H2110.71Z" fill="#E6E0FF"/>
<path d="M2305.18 1822.63H2161.58V1831.11H2305.18V1822.63Z" fill="#3A3261"/>
<path d="M2305.18 1842.89H2161.58V1851.36H2305.18V1842.89Z" fill="#3A3261"/>
<path d="M2305.18 1862.7H2161.58V1871.17H2305.18V1862.7Z" fill="#3A3261"/>
<path d="M2305.18 1882.06H2161.58V1890.53H2305.18V1882.06Z" fill="#3A3261"/>
<path d="M2782.74 2152.89H2535.2C2506.96 2152.89 2483.98 2128.11 2483.98 2097.66V1830.74C2483.98 1800.29 2506.95 1775.51 2535.2 1775.51H2782.74C2810.97 1775.51 2833.96 1800.28 2833.96 1830.74V2097.66C2833.96 2128.11 2810.97 2152.89 2782.74 2152.89ZM2535.2 1776.33C2507.37 1776.33 2484.74 1800.74 2484.74 1830.74V2097.66C2484.74 2127.67 2507.37 2152.06 2535.2 2152.06H2782.74C2810.58 2152.06 2833.2 2127.67 2833.2 2097.66V1830.74C2833.2 1800.74 2810.58 1776.33 2782.74 1776.33H2535.2Z" fill="#E6E0FF"/>
<path d="M2729.69 1822.63H2586.08V1831.11H2729.69V1822.63Z" fill="#3A3261"/>
<path d="M2729.69 1842.89H2586.08V1851.36H2729.69V1842.89Z" fill="#3A3261"/>
<path d="M2729.69 1862.7H2586.08V1871.17H2729.69V1862.7Z" fill="#3A3261"/>
<path d="M2729.69 1882.06H2586.08V1890.53H2729.69V1882.06Z" fill="#3A3261"/>
</g>
</g>
</g>
</g>
<defs>
<filter id="filter0_d_496_1832" x="-976.547" y="100.515" width="5601.01" height="2074.24" filterUnits="userSpaceOnUse" color-interpolation-filters="sRGB">
<feFlood flood-opacity="0" result="BackgroundImageFix"/>
<feColorMatrix in="SourceAlpha" type="matrix" values="0 0 0 0 0 0 0 0 0 0 0 0 0 0 0 0 0 0 127 0" result="hardAlpha"/>
<feOffset dy="4"/>
<feGaussianBlur stdDeviation="2"/>
<feComposite in2="hardAlpha" operator="out"/>
<feColorMatrix type="matrix" values="0 0 0 0 0 0 0 0 0 0 0 0 0 0 0 0 0 0 0.25 0"/>
<feBlend mode="normal" in2="BackgroundImageFix" result="effect1_dropShadow_496_1832"/>
<feBlend mode="normal" in="SourceGraphic" in2="effect1_dropShadow_496_1832" result="shape"/>
</filter>
<linearGradient id="paint0_linear_496_1832" x1="1538.5" y1="1789" x2="2715.5" y2="472.5" gradientUnits="userSpaceOnUse">
<stop stop-color="#F3ECFF"/>
<stop offset="1" stop-color="#D6C7FE"/>
</linearGradient>
<linearGradient id="paint1_linear_496_1832" x1="1752.89" y1="2205.74" x2="1752.89" y2="1570.45" gradientUnits="userSpaceOnUse">
<stop stop-color="#83A2CE"/>
<stop offset="0.1164" stop-color="#95B1D7"/>
<stop offset="0.3156" stop-color="#AEC5E4"/>
<stop offset="0.5237" stop-color="#C0D4ED"/>
<stop offset="0.7447" stop-color="#CBDCF2"/>
<stop offset="1" stop-color="#CEDFF4"/>
</linearGradient>
<linearGradient id="paint2_linear_496_1832" x1="1757.46" y1="2084.76" x2="1748.49" y2="1482.85" gradientUnits="userSpaceOnUse">
<stop offset="0.0855" stop-color="#83A2CE"/>
<stop offset="0.8676" stop-color="#CEDFF4"/>
</linearGradient>
<clipPath id="clip0_496_1832">
<rect width="3521.11" height="2000" fill="white"/>
</clipPath>
<clipPath id="clip1_496_1832">
<rect width="4803" height="1901" fill="white" transform="translate(-866 99)"/>
</clipPath>
</defs>
</svg>
