<svg width="140" height="140" viewBox="0 0 140 140" fill="none" xmlns="http://www.w3.org/2000/svg">
<rect width="140" height="140" fill="white"/>
<mask id="mask0_2446_797" style="mask-type:luminance" maskUnits="userSpaceOnUse" x="25" y="20" width="88" height="100">
<path d="M113 20H25V120H113V20Z" fill="white"/>
</mask>
<g mask="url(#mask0_2446_797)">
<path d="M67.4995 20.8658C68.4277 20.3299 69.5713 20.3299 70.4995 20.8658L110.801 44.1337C111.729 44.6696 112.301 45.6601 112.301 46.7319V93.2675C112.301 94.3395 111.729 95.33 110.801 95.866L70.4995 119.134C69.5713 119.669 68.4277 119.669 67.4995 119.134L27.1982 95.866C26.27 95.33 25.6982 94.3395 25.6982 93.2675V46.7319C25.6982 45.6601 26.27 44.6696 27.1982 44.1337L67.4995 20.8658Z" fill="#3C8CFF"/>
<path d="M25.7007 46.9255C25.7007 46.1571 26.5314 45.6758 27.1981 46.058L68.7981 69.9112C69.109 70.0895 69.3007 70.4205 69.3007 70.7785V118.474C69.3007 119.242 68.4699 119.723 67.8033 119.341L26.2033 95.4875C25.8924 95.3095 25.7007 94.9785 25.7007 94.62V46.9255Z" fill="#78E6DD"/>
<path d="M112.3 46.8279C112.3 46.059 111.468 45.5777 110.801 45.9609L69.3017 69.8114C68.9914 69.9898 68.8 70.3205 68.8 70.6785V118.372C68.8 119.141 69.6317 119.622 70.2984 119.239L111.798 95.388C112.109 95.2095 112.3 94.879 112.3 94.521V46.8279Z" fill="#3259B4"/>
</g>
</svg>
