<svg width="140" height="140" viewBox="0 0 140 140" fill="none" xmlns="http://www.w3.org/2000/svg">
<rect width="140" height="140" fill="white"/>
<path d="M70 68.9C79.9136 68.9 87.95 60.8635 87.95 50.95C87.95 41.0365 79.9136 33 70 33C60.0865 33 52.05 41.0365 52.05 50.95C52.05 60.8635 60.0865 68.9 70 68.9Z" fill="#3C8CFF"/>
<path d="M35.9801 72.84C40.3431 72.84 43.8801 69.3031 43.8801 64.94C43.8801 60.577 40.3431 57.04 35.9801 57.04C31.617 57.04 28.0801 60.577 28.0801 64.94C28.0801 69.3031 31.617 72.84 35.9801 72.84Z" fill="#78E6DD"/>
<path d="M103.99 72.86C108.359 72.86 111.9 69.3186 111.9 64.95C111.9 60.5815 108.359 57.04 103.99 57.04C99.6215 57.04 96.0801 60.5815 96.0801 64.95C96.0801 69.3186 99.6215 72.86 103.99 72.86Z" fill="#3259B4"/>
<path d="M44.202 77.0516C44.4232 87.7771 47.9022 96.2965 54.6389 102.61C56.4555 104.313 59.5759 106.063 64 107.861C52.6112 108.015 41.4034 108.041 30.3766 107.938C24.8364 107.874 21.3071 106.261 20 99.1263V86.0053C21.2166 78.832 24.7559 77.0129 30.3464 77C35.0655 77 39.684 77.0172 44.202 77.0516Z" fill="#78E6DD"/>
<path d="M44 77L76.5363 77.1295C88.7386 81.9811 95.2265 92.2712 96 108L63.6938 107.922C59.2929 106.118 56.189 104.361 54.382 102.652C47.6807 96.3156 44.22 87.765 44 77Z" fill="#3C8CFF"/>
<path d="M77 77.2106C88.0043 77.0301 98.7444 76.9656 109.22 77.0172C114.897 77.0559 118.583 78.3968 120 85.8492V98.9746C118.722 106.414 115.165 107.987 109.498 108C105.059 108 100.653 107.983 96.2806 107.948C95.5144 92.2873 89.0876 82.0413 77 77.2106Z" fill="#3259B4"/>
</svg>
