<svg width="140" height="140" viewBox="0 0 140 140" fill="none" xmlns="http://www.w3.org/2000/svg">
<rect width="140" height="140" fill="white"/>
<path d="M84 93.5033L64.6749 118L23.4616 85.8574C21.5578 84.3533 20.3343 82.1643 20.059 79.7697C19.7837 77.3752 20.4791 74.9703 21.9928 73.0819L35.698 56L84 93.5033Z" fill="#3C8CFF"/>
<path d="M64.1928 117.786L39 98.1401L58.5855 74L84 93.5157L64.4699 118L64.1928 117.786Z" fill="#3259B4"/>
<path d="M64.4511 117.729L64.7928 118L118.062 49.6784C119.546 47.7744 120.219 45.3617 119.937 42.9639C119.654 40.566 118.438 38.3764 116.553 36.87L99.1699 23L59 73.6635L84.0294 93.3285L64.7952 117.998L64.4511 117.729Z" fill="#78E6DD"/>
</svg>
