<svg width="140" height="140" viewBox="0 0 140 140" fill="none" xmlns="http://www.w3.org/2000/svg">
<rect width="140" height="140" fill="white"/>
<mask id="mask0_2446_799" style="mask-type:luminance" maskUnits="userSpaceOnUse" x="20" y="25" width="100" height="88">
<path d="M120 25H20V112.429H120V25Z" fill="white"/>
</mask>
<g mask="url(#mask0_2446_799)">
<path d="M120 62.2169C120 60.6244 118.526 59.5519 117.204 60.1846L61.204 87.0575C60.8436 87.2347 60.5382 87.5209 60.3246 87.8819C60.111 88.2429 59.9982 88.6632 60 89.092V109.784C60 111.008 60.896 112 62 112H112C116.42 112 120 108.035 120 103.141V62.2169Z" fill="#3259B4"/>
<path d="M104 46.387C104 44.6941 102.562 43.5405 101.248 44.1782L41.248 73.2401C40.8768 73.4223 40.56 73.7299 40.3378 74.1234C40.1156 74.5171 39.9981 74.9793 40 75.4513V109.615C40 110.933 40.896 112 42 112H96C100.42 112 104 107.73 104 102.461V46.387Z" fill="#3C8CFF"/>
<path d="M104 67.0001L61.204 87.3198C60.474 87.6671 60 88.4561 60 89.3308V109.809C60 111.018 60.896 112 62 112H96C100.42 112 104 108.094 104 103.279V67.0001Z" fill="#3370FF"/>
<path d="M84 27.609C84 25.7576 82.562 24.4976 81.248 25.1919L21.248 56.985C20.8773 57.184 20.5609 57.5199 20.3387 57.9501C20.1166 58.3803 19.9987 58.8856 20 59.4022V109.82C20 111.26 20.896 112.428 22 112.428H76C80.42 112.428 84 107.756 84 101.993V27.609Z" fill="#78E6DD"/>
<path d="M84 53.0001L41.248 73.5445C40.8768 73.7255 40.56 74.0305 40.3378 74.4211C40.1156 74.8117 39.9981 75.27 40 75.7383V109.634C40 110.942 40.896 112 42 112H76C80.42 112 84 107.773 84 102.56V53.0001Z" fill="#00C8D2"/>
</g>
</svg>
