<svg width="140" height="140" viewBox="0 0 140 140" fill="none" xmlns="http://www.w3.org/2000/svg">
<rect width="140" height="140" fill="white"/>
<path d="M68.3765 113V34.6094C68.3765 33.7798 68.9714 34.2167 68.3765 33.7031C68.3765 33.7031 55.4145 26 45.1961 26C36.36 26 28.1012 28.627 23.167 30.7602C21.1898 31.6293 20 33.8415 20 36.2315V109.373C20 111.723 22.2397 113.363 24.2168 112.632C29.7285 110.558 38.4596 108.168 45.1961 108.168C51.1277 108.168 63.7222 111.124 68.3765 113Z" fill="#78E6DD"/>
<path d="M116.08 112.81C117.97 113.56 120 112 120 109.748V35.2044C120 34.3748 119.72 33.5452 119.125 33.0317C115.696 29.9504 107.822 26 97.6034 26C88.7672 26 80.5085 28.627 75.5743 30.7602C73.5971 31.6293 70.896 33.1256 70.896 35.5156L71.3999 113C76.9116 110.926 90.8669 108.168 97.6034 108.168C103.535 108.168 111.426 110.933 116.08 112.81Z" fill="#00C8D2"/>
<rect x="67.3687" y="33.25" width="5.03922" height="79.75" rx="1" fill="#3C8CFF"/>
</svg>
